<svg preserveAspectRatio="none" width="100%" height="100%" overflow="visible" style="display: block;" viewBox="0 0 49 49" fill="none" xmlns="http://www.w3.org/2000/svg">
<g id="fi_17255146">
<path id="Vector" d="M39.7359 40.2795C37.3089 40.2795 35.3259 42.2548 35.3259 44.6895C35.3259 45.1106 35.6705 45.4552 36.0916 45.4552H43.3803C43.8014 45.4552 44.1459 45.1106 44.1459 44.6895C44.1459 42.2625 42.1706 40.2795 39.7359 40.2795Z" fill="var(--fill-0, #32DD80)"/>
<path id="Vector_2" d="M32.7688 43.9163H29.4689L28.3511 38.5569H20.6642L19.5464 43.9163H16.2313C15.8102 43.9163 15.4656 44.2608 15.4656 44.6819C15.4656 45.103 15.8102 45.4475 16.2313 45.4475H32.7841C33.2052 45.4475 33.5497 45.103 33.5497 44.6819C33.5497 44.2608 33.2052 43.9163 32.7841 43.9163H32.7688Z" fill="var(--fill-0, #32DD80)"/>
<path id="Vector_3" d="M42.9975 4.31047H6.0025C4.41 4.31047 3.10844 5.61203 3.10844 7.20453V34.1316C3.10844 35.7241 4.41 37.0256 6.0025 37.0256H42.9975C44.59 37.0256 45.8916 35.7241 45.8916 34.1316V7.20453C45.8916 5.61203 44.59 4.31047 42.9975 4.31047ZM23.7344 33.6645H19.868C19.5923 32.3783 18.7731 31.2987 17.6783 30.6556C18.9569 30.1886 19.5617 29.423 19.5617 29.423C18.7884 28.2056 18.7655 27.4017 18.7655 27.4017C18.4133 23.7803 15.4656 23.8798 15.4656 23.8798C12.0663 24.0023 11.9667 27.4553 11.9667 27.4553C11.7447 28.8487 11.1169 29.3541 11.1169 29.3541C11.8136 30.2652 12.74 30.5791 13.008 30.6556C11.9055 31.2987 11.0862 32.3783 10.8183 33.6645H6.42359V21.4298H23.7344V33.6645ZM23.7344 19.8986H19.7378C19.3703 18.7042 18.5358 17.7166 17.4409 17.1423C18.2142 16.5222 18.7272 15.5805 18.7272 14.5086C18.7272 12.6405 17.2113 11.1169 15.3355 11.1169C13.4597 11.1169 11.9438 12.6328 11.9438 14.5086C11.9438 15.5805 12.4491 16.5222 13.23 17.1423C12.1352 17.7089 11.293 18.6966 10.9331 19.8986H6.42359V7.66391H23.7344V19.8986ZM42.5305 33.6645H38.4344C38.2047 32.1869 37.2706 30.9466 35.9844 30.2881C36.7653 29.6603 37.2706 28.7186 37.2706 27.6467C37.2706 25.7786 35.7547 24.255 33.8789 24.255C32.0031 24.255 30.4948 25.7786 30.4948 27.6467C30.4948 28.7186 31.0002 29.6603 31.7811 30.2881C30.4948 30.9466 29.5608 32.1869 29.3311 33.6645H25.2656V21.4298H42.5305V33.6645ZM42.5305 19.8986H38.2047C37.8219 18.9263 37.1252 18.1147 36.2294 17.5864C37.5003 17.1117 38.1128 16.3538 38.1128 16.3538C37.3395 15.1288 37.3166 14.3325 37.3166 14.3325C36.9644 10.7111 34.0167 10.8106 34.0167 10.8106C30.6173 10.9331 30.5178 14.3861 30.5178 14.3861C30.2958 15.7872 29.668 16.2848 29.668 16.2848C30.3647 17.1959 31.2911 17.5098 31.5591 17.5864C30.6633 18.1147 29.9589 18.9262 29.5761 19.9062H25.2656V7.67156H42.5305V19.9062V19.8986Z" fill="var(--fill-0, #32DD80)"/>
</g>
</svg>
