<svg preserveAspectRatio="none" width="100%" height="100%" overflow="visible" style="display: block;" viewBox="0 0 45 45" fill="none" xmlns="http://www.w3.org/2000/svg">
<g id="Group">
<path id="Vector" d="M36.2109 0C31.3569 0 27.4219 3.93495 27.4219 8.78906C27.4219 13.6431 31.3569 17.5781 36.2109 17.5781C41.065 17.5781 45 13.6431 45 8.78906C45 3.93495 41.065 0 36.2109 0ZM40.2506 8.19721L36.1073 12.3405C35.5925 12.8553 34.7578 12.8553 34.2429 12.3405L32.1713 10.2689C31.6564 9.75401 31.6564 8.91932 32.1713 8.40445C32.6862 7.88959 33.5209 7.88959 34.0357 8.40445L35.1751 9.54387L38.3861 6.33287C38.901 5.81801 39.7357 5.81801 40.2506 6.33287C40.7654 6.84756 40.7654 7.68234 40.2506 8.19721Z" fill="var(--fill-0, #32DD80)"/>
<path id="Vector_2" d="M30.4321 27.2021H28.6743C30.3126 27.2021 31.6406 25.8741 31.6406 24.2358C31.6406 22.5976 30.3126 21.2695 28.6743 21.2695H19.1162V16.6553C19.1162 14.3496 17.2471 12.4805 14.9414 12.4805C13.9706 12.4805 13.1836 13.2674 13.1836 14.2383V19.9512C13.1836 21.6501 11.8063 23.0273 10.1074 23.0273H7.91016V43.2422H9.80262C12.2115 44.393 14.8844 45 17.5536 45H26.9165C28.5548 45 29.8828 43.672 29.8828 42.0337C29.8828 40.3954 28.5548 39.0674 26.9165 39.0674H28.6743C30.3126 39.0674 31.6406 37.7394 31.6406 36.1011C31.6406 34.4628 30.3126 33.1348 28.6743 33.1348H30.4321C32.0704 33.1348 33.3984 31.8067 33.3984 30.1685C33.3984 28.5302 32.0704 27.2021 30.4321 27.2021Z" fill="var(--fill-0, #32DD80)"/>
<path id="Vector_3" d="M3.95508 21.2695H1.31836C0.590273 21.2695 0 21.8598 0 22.5879V43.6816C0 44.4097 0.590273 45 1.31836 45H3.95508C4.68316 45 5.27344 44.4097 5.27344 43.6816V22.5879C5.27344 21.8598 4.68316 21.2695 3.95508 21.2695Z" fill="var(--fill-0, #32DD80)"/>
</g>
</svg>
