<svg preserveAspectRatio="none" width="100%" height="100%" overflow="visible" style="display: block;" viewBox="0 0 41 41" fill="none" xmlns="http://www.w3.org/2000/svg">
<g id="fi_87932" clip-path="url(#clip0_0_28)">
<path id="Vector" d="M20.4999 0C9.19632 0 0 9.19611 0 20.4999C0 31.8037 9.19632 41 20.4999 41C31.8035 41 40.9998 31.8037 40.9998 20.4999C40.9998 9.19611 31.8037 0 20.4999 0ZM32.2713 17.0373L19.3923 29.9163C18.8446 30.4639 18.1167 30.7653 17.3423 30.7653C16.568 30.7653 15.84 30.4639 15.2924 29.9163L8.72849 23.3524C8.18088 22.8048 7.87926 22.0769 7.87926 21.3025C7.87926 20.5279 8.18088 19.8 8.72849 19.2524C9.27589 18.7047 10.0038 18.4031 10.7784 18.4031C11.5528 18.4031 12.2809 18.7047 12.8283 19.2526L17.3421 23.7661L28.171 12.9372C28.7186 12.3896 29.4466 12.0882 30.2209 12.0882C30.9953 12.0882 31.7232 12.3896 32.2709 12.9372C33.4016 14.068 33.4016 15.907 32.2713 17.0373Z" fill="var(--fill-0, #32DD80)"/>
</g>
<defs>
<clipPath id="clip0_0_28">
<rect width="41" height="41" fill="white"/>
</clipPath>
</defs>
</svg>
