<svg preserveAspectRatio="none" width="100%" height="100%" overflow="visible" style="display: block;" viewBox="0 0 44 43.9642" fill="none" xmlns="http://www.w3.org/2000/svg">
<g id="Group">
<path id="Vector" d="M37.6598 23.0215C37.5384 22.9737 34.6454 21.8491 31.1902 21.6413C27.9474 21.4459 25.2752 22.1211 23.2891 23.6117V43.9641C24.7351 41.659 27.3193 40.5951 30.9783 40.8026C34.0346 40.9758 36.6909 42.0023 36.7162 42.0121C37.1131 42.1683 37.5613 42.1179 37.9138 41.8779C38.2662 41.6378 38.4771 41.239 38.4771 40.8125V24.2211C38.4771 23.6912 38.1529 23.2154 37.6598 23.0215ZM34.238 34.1468C34.1737 34.8559 33.5464 35.3785 32.8379 35.3143C31.4503 35.1886 30.1827 35.2403 29.0706 35.4681C28.0863 35.6692 27.622 34.8197 27.5492 34.4637C27.4063 33.7663 27.856 33.0851 28.5535 32.9423C29.9123 32.6641 31.4321 32.5983 33.0706 32.7467C33.7795 32.811 34.3022 33.4378 34.238 34.1468ZM34.238 28.6163C34.1738 29.3254 33.5464 29.848 32.8379 29.7838C31.4518 29.6583 30.1842 29.7103 29.0705 29.9383C28.0861 30.1395 27.6219 29.2899 27.5491 28.9339C27.4062 28.2364 27.856 27.5553 28.5534 27.4125C29.9138 27.134 31.4335 27.068 33.0705 27.2162C33.7795 27.2804 34.3022 27.9072 34.238 28.6163Z" fill="var(--fill-0, #32DD80)"/>
<path id="Vector_2" d="M12.8098 21.6413C9.35464 21.8491 6.46164 22.9737 6.34021 23.0215C5.8471 23.2154 5.52294 23.6912 5.52294 24.2211V40.8126C5.52294 41.239 5.73384 41.6379 6.08627 41.878C6.43878 42.1181 6.88712 42.1684 7.28389 42.0122C7.30984 42.002 9.91341 40.9897 12.9647 40.8059C16.6533 40.5839 19.2571 41.6466 20.711 43.9642V23.6118C18.7248 22.1213 16.0523 21.4463 12.8098 21.6413ZM16.4509 34.4637C16.3781 34.8196 15.9138 35.6692 14.9295 35.4681C13.8174 35.2404 12.5499 35.1886 11.1622 35.3143C10.4537 35.3785 9.82627 34.856 9.76207 34.1468C9.69787 33.4378 10.2205 32.811 10.9296 32.7467C12.5681 32.5983 14.0879 32.6641 15.4467 32.9423C16.144 33.0851 16.5938 33.7663 16.4509 34.4637ZM16.4509 28.9338C16.3781 29.2898 15.9139 30.1394 14.9295 29.9382C13.8158 29.7102 12.5482 29.6582 11.1621 29.7837C9.45519 29.8745 9.23476 27.4328 10.9295 27.2161C12.5665 27.0679 14.0862 27.1339 15.4466 27.4124C16.144 27.5552 16.5938 28.2364 16.4509 28.9338Z" fill="var(--fill-0, #32DD80)"/>
<path id="Vector_3" d="M22 10.9184C25.0201 10.9184 27.4771 8.46136 27.4771 5.44135C27.2017 -1.81478 16.7971 -1.81281 16.5229 5.44143C16.5229 8.46136 18.9799 10.9184 22 10.9184Z" fill="var(--fill-0, #32DD80)"/>
<path id="Vector_4" d="M8.19268 14.3688C11.2128 14.3688 13.6697 11.9118 13.6697 8.89174C13.3944 1.63561 2.98985 1.63758 2.71563 8.89182C2.71563 11.9118 5.17258 14.3688 8.19268 14.3688Z" fill="var(--fill-0, #32DD80)"/>
<path id="Vector_5" d="M35.8073 14.3688C38.8274 14.3688 41.2844 11.9118 41.2844 8.89174C41.009 1.63561 30.6044 1.63758 30.3302 8.89182C30.3303 11.9118 32.7872 14.3688 35.8073 14.3688Z" fill="var(--fill-0, #32DD80)"/>
<path id="Vector_6" d="M30.1927 16.9294C30.1927 14.858 29.0417 12.9965 27.1894 12.0713L26.8238 11.8886C24.1439 14.0106 19.8571 14.0107 17.1771 11.8893L16.8087 12.0736C14.9573 13.0002 13.8072 14.8616 13.8072 16.9315V19.0309C16.0903 19.0232 19.2428 19.4172 21.9999 21.3628C24.757 19.4168 27.9087 19.0229 30.1927 19.0308V16.9294Z" fill="var(--fill-0, #32DD80)"/>
<path id="Vector_7" d="M40.9967 15.5216L40.6312 15.3389C38.528 16.9921 35.2551 17.4344 32.7497 16.3436C32.7637 16.5373 32.7709 16.7328 32.7709 16.9295V19.1997C35.8948 19.5852 38.3039 20.5046 38.6032 20.6222C40.0928 21.208 41.0552 22.6207 41.0552 24.2211V27.3955H42.7109C43.4228 27.3955 44 26.8183 44 26.1064V20.3798C44 18.3085 42.849 16.4468 40.9967 15.5216Z" fill="var(--fill-0, #32DD80)"/>
<path id="Vector_8" d="M11.2291 16.9314C11.2291 16.7341 11.2364 16.5379 11.2505 16.3435C8.74509 17.4342 5.47327 16.9923 3.36978 15.3397L3.00137 15.524C1.1501 16.4505 0 18.3119 0 20.3818V26.1064C0 26.8183 0.577156 27.3955 1.28906 27.3955H2.94482V24.2211C2.94482 22.6207 3.90723 21.208 5.3967 20.6223C5.69611 20.5046 8.10511 19.5853 11.2291 19.1998V16.9314Z" fill="var(--fill-0, #32DD80)"/>
</g>
</svg>
