<svg preserveAspectRatio="none" width="100%" height="100%" overflow="visible" style="display: block;" viewBox="0 0 41.1006 41.2085" fill="none" xmlns="http://www.w3.org/2000/svg">
<g id="Layer 2">
<path id="Vector" d="M39.491 18.7718C39.1521 18.7714 38.8243 18.6514 38.5652 18.4329C38.3061 18.2145 38.1323 17.9117 38.0746 17.5777C37.8753 16.4133 37.5581 15.2721 37.1278 14.1718C37.0592 13.9956 37.026 13.8077 37.03 13.6186C37.0341 13.4296 37.0753 13.2432 37.1514 13.0702C37.2275 12.8971 37.3369 12.7407 37.4735 12.6099C37.61 12.4791 37.7709 12.3765 37.9471 12.3079C38.303 12.1694 38.6992 12.1779 39.0488 12.3315C39.2219 12.4076 39.3783 12.517 39.5091 12.6536C39.6399 12.7901 39.7425 12.9511 39.8111 13.1272C40.3086 14.4086 40.6771 15.7364 40.9113 17.0909C40.9432 17.2771 40.9381 17.4677 40.8963 17.6518C40.8545 17.836 40.7768 18.0101 40.6677 18.1643C40.5586 18.3184 40.4202 18.4496 40.2604 18.5502C40.1006 18.6508 39.9225 18.719 39.7363 18.7507C39.6553 18.7644 39.5732 18.7715 39.491 18.7718ZM36.7329 11.6802C36.4919 11.6806 36.2547 11.6205 36.043 11.5053C35.8313 11.39 35.652 11.2235 35.5216 11.0208C34.8814 10.0261 34.1437 9.09768 33.3193 8.24933C33.1857 8.11435 33.0802 7.95423 33.0089 7.77823C32.9375 7.60222 32.9018 7.41383 32.9037 7.22393C32.9055 7.03402 32.945 6.84638 33.0199 6.67182C33.0947 6.49727 33.2033 6.33928 33.3396 6.20696C33.4758 6.07465 33.6369 5.97065 33.8136 5.90096C33.9903 5.83127 34.179 5.79728 34.3688 5.80094C34.5587 5.80461 34.746 5.84587 34.9198 5.92233C35.0937 5.99879 35.2506 6.10894 35.3817 6.24642C36.3391 7.23169 37.1962 8.30968 37.9404 9.4645C38.0802 9.68154 38.1589 9.93221 38.1683 10.1902C38.1777 10.4481 38.1175 10.7039 37.994 10.9306C37.8705 11.1572 37.6882 11.3464 37.4663 11.4783C37.2444 11.6102 36.9911 11.68 36.7329 11.6802ZM31.4199 6.21575C31.131 6.2165 30.8488 6.12889 30.6111 5.96467C29.6334 5.29899 28.5928 4.73085 27.5042 4.26842C27.318 4.20381 27.1471 4.10163 27.0022 3.96821C26.8572 3.83479 26.7411 3.67299 26.6613 3.49285C26.5815 3.31272 26.5395 3.11809 26.538 2.92105C26.5366 2.72402 26.5756 2.52879 26.6528 2.34749C26.7299 2.16619 26.8436 2.00268 26.9866 1.86713C27.1296 1.73157 27.2989 1.62686 27.4841 1.5595C27.6692 1.49214 27.8663 1.46356 28.0629 1.47555C28.2596 1.48753 28.4517 1.53982 28.6273 1.62917C29.8912 2.16405 31.0983 2.82412 32.2307 3.5995C32.484 3.77283 32.6752 4.02271 32.7763 4.31256C32.8774 4.6024 32.883 4.917 32.7924 5.21029C32.7018 5.50357 32.5197 5.76015 32.2727 5.94246C32.0257 6.12476 31.7269 6.22322 31.4199 6.22342V6.21575ZM24.4107 3.25258C24.3155 3.25203 24.2206 3.24305 24.127 3.22575C22.9671 2.99317 21.7871 2.87568 20.6042 2.875C20.2229 2.875 19.8573 2.72355 19.5877 2.45397C19.3181 2.18438 19.1667 1.81875 19.1667 1.4375C19.1667 1.05625 19.3181 0.690618 19.5877 0.421034C19.8573 0.151451 20.2229 2.4097e-07 20.6042 2.35289e-07C21.977 -0.000206563 23.3465 0.135906 24.6924 0.406334C25.0413 0.477168 25.3515 0.674937 25.5629 0.961347C25.7743 1.24776 25.872 1.60243 25.8369 1.9567C25.8018 2.31096 25.6366 2.63961 25.3731 2.87901C25.1096 3.11841 24.7667 3.25152 24.4107 3.25258Z" fill="var(--fill-0, #32DD80)"/>
<path id="Vector_2" d="M20.6042 41.2083C15.1396 41.2083 9.89885 39.0376 6.03482 35.1735C2.17079 31.3095 0 26.0687 0 20.6042C0 15.1396 2.17079 9.89886 6.03482 6.03483C9.89885 2.17079 15.1396 4.01533e-06 20.6042 3.93391e-06C20.9854 3.93391e-06 21.351 0.151454 21.6206 0.421038C21.8902 0.690622 22.0417 1.05626 22.0417 1.4375C22.0417 1.81875 21.8902 2.18439 21.6206 2.45397C21.351 2.72355 20.9854 2.875 20.6042 2.875C17.1731 2.87369 13.8153 3.86802 10.9381 5.73738C8.06095 7.60673 5.78803 10.2708 4.39506 13.4064C3.00208 16.5421 2.5489 20.0145 3.09048 23.4026C3.63206 26.7907 5.14514 29.9489 7.44618 32.494C9.74721 35.0392 12.7373 36.862 16.0539 37.7413C19.3704 38.6206 22.8708 38.5186 26.1306 37.4478C29.3903 36.377 32.2693 34.3833 34.4183 31.7085C36.5673 29.0338 37.894 25.7929 38.2375 22.379C38.2856 22.0083 38.4761 21.671 38.7687 21.4384C39.0613 21.2059 39.433 21.0965 39.805 21.1333C40.1769 21.1702 40.5199 21.3506 40.7611 21.6361C41.0023 21.9216 41.1229 22.2898 41.0972 22.6627C40.6049 27.751 38.2313 32.4725 34.4409 35.9027C30.6505 39.3329 25.7162 41.2249 20.6042 41.2083Z" fill="var(--fill-0, #32DD80)"/>
<path id="Vector_3" d="M20.6042 5.27083C17.5715 5.27083 14.607 6.17012 12.0854 7.85497C9.56387 9.53981 7.59856 11.9346 6.43801 14.7364C5.27747 17.5382 4.97382 20.6212 5.56546 23.5956C6.1571 26.5699 7.61746 29.3021 9.76186 31.4465C11.9063 33.5909 14.6384 35.0512 17.6128 35.6429C20.5872 36.2345 23.6702 35.9309 26.472 34.7703C29.2738 33.6098 31.6685 31.6445 33.3534 29.1229C35.0382 26.6014 35.9375 23.6368 35.9375 20.6042C35.9375 16.5375 34.322 12.6374 31.4465 9.76186C28.5709 6.88631 24.6708 5.27083 20.6042 5.27083ZM29.4208 27.2167C29.1921 27.5217 28.8515 27.7233 28.4741 27.7772C28.0967 27.8311 27.7133 27.7329 27.4083 27.5042L19.7417 21.7542C19.5619 21.6214 19.4161 21.448 19.3162 21.2482C19.2162 21.0483 19.165 20.8276 19.1667 20.6042V11.0208C19.1667 10.6396 19.3181 10.274 19.5877 10.0044C19.8573 9.73478 20.2229 9.58333 20.6042 9.58333C20.9854 9.58333 21.351 9.73478 21.6206 10.0044C21.8902 10.274 22.0417 10.6396 22.0417 11.0208V19.8758L29.1333 25.2042C29.2844 25.3174 29.4116 25.4593 29.5078 25.6218C29.6039 25.7842 29.6672 25.964 29.6939 26.1509C29.7206 26.3378 29.7102 26.5281 29.6634 26.7109C29.6165 26.8938 29.5341 27.0656 29.4208 27.2167Z" fill="var(--fill-0, #32DD80)"/>
</g>
</svg>
