<svg width="45" height="35" viewBox="0 0 45 35" fill="none" xmlns="http://www.w3.org/2000/svg">
<g filter="url(#filter0_d_2020_1253)">
<path d="M15.7399 0.508789V25.9512H9.92446V6.65132L5.41751 7.8871L4 2.90765L10.6514 0.508789H15.7399Z" fill="white"/>
<path d="M19.3745 13.2301C19.3745 5.37926 23.1545 0 29.7332 0C36.3119 0 40.0919 5.37926 40.0919 13.2301C40.0919 21.0809 36.3119 26.4601 29.7332 26.4601C23.1545 26.4601 19.3745 21.0809 19.3745 13.2301ZM34.2765 13.2301C34.2765 8.32331 32.7863 5.67003 29.7332 5.67003C26.6801 5.67003 25.1899 8.32331 25.1899 13.2301C25.1899 18.1368 26.6801 20.7901 29.7332 20.7901C32.7863 20.7901 34.2765 18.1368 34.2765 13.2301Z" fill="white"/>
</g>
<defs>
<filter id="filter0_d_2020_1253" x="0" y="0" width="44.092" height="34.4602" filterUnits="userSpaceOnUse" color-interpolation-filters="sRGB">
<feFlood flood-opacity="0" result="BackgroundImageFix"/>
<feColorMatrix in="SourceAlpha" type="matrix" values="0 0 0 0 0 0 0 0 0 0 0 0 0 0 0 0 0 0 127 0" result="hardAlpha"/>
<feOffset dy="4"/>
<feGaussianBlur stdDeviation="2"/>
<feComposite in2="hardAlpha" operator="out"/>
<feColorMatrix type="matrix" values="0 0 0 0 0.0884569 0 0 0 0 0.427885 0 0 0 0 0.243284 0 0 0 1 0"/>
<feBlend mode="normal" in2="BackgroundImageFix" result="effect1_dropShadow_2020_1253"/>
<feBlend mode="normal" in="SourceGraphic" in2="effect1_dropShadow_2020_1253" result="shape"/>
</filter>
</defs>
</svg>
