<svg width="45" height="40" viewBox="0 0 45 40" fill="none" xmlns="http://www.w3.org/2000/svg">
<g filter="url(#filter0_d_2022_3101)">
<path d="M37.2999 5.04718C38.8324 5.04718 40.0749 3.91754 40.0749 2.52359C40.0749 1.12995 38.8324 0 37.2999 0C35.7674 0 34.5249 1.12995 34.5249 2.52359C34.5266 3.91693 35.7681 5.04564 37.2999 5.04718ZM37.2999 1.6826C37.8107 1.6826 38.225 2.05904 38.225 2.52359C38.225 2.98814 37.8107 3.36489 37.2999 3.36489C36.7891 3.36489 36.3748 2.98814 36.3748 2.52359C36.3751 2.05935 36.7891 1.68291 37.2999 1.6826Z" fill="#FFF3E5"/>
</g>
<g filter="url(#filter1_d_2022_3101)">
<path d="M15.1002 13.4606H13.2503C12.7395 13.4606 12.3252 13.8374 12.3252 14.302C12.3252 14.7666 12.7395 15.1431 13.2503 15.1431H15.1002C16.632 15.1415 17.8735 14.0127 17.8752 12.6192V5.88908C17.8735 4.49591 16.632 3.36677 15.1002 3.36523H13.2503C12.7395 3.36523 12.3252 3.74202 12.3252 4.20662C12.3252 4.67121 12.7395 5.04769 13.2503 5.04769H15.1002C15.611 5.048 16.025 5.42448 16.0253 5.88908V8.41292H13.2503C12.7395 8.41292 12.3252 8.78971 12.3252 9.25431C12.3252 9.7189 12.7395 10.0954 13.2503 10.0954H16.0253V12.6192C16.025 13.0838 15.611 13.4603 15.1002 13.4606Z" fill="#FFF3E5"/>
</g>
<g filter="url(#filter2_d_2022_3101)">
<path d="M22.4996 15.1431C24.0318 15.1415 25.2729 14.0127 25.2746 12.6192V9.25431C25.2729 7.86083 24.0318 6.732 22.4996 6.73046C22.1839 6.73324 21.8709 6.78561 21.5748 6.88543V5.88908C21.5752 5.42448 21.9891 5.048 22.4996 5.04769H24.3498C24.8607 5.04769 25.2746 4.67121 25.2746 4.20662C25.2746 3.74202 24.8607 3.36523 24.3498 3.36523H22.4996C20.9678 3.36677 19.7263 4.49591 19.7246 5.88908V12.6192C19.7263 14.0127 20.9678 15.1415 22.4996 15.1431ZM21.5748 9.25431C21.5748 8.78971 21.9888 8.41292 22.4996 8.41292C23.0104 8.41292 23.4247 8.78971 23.4247 9.25431V12.6192C23.4247 13.0838 23.0104 13.4606 22.4996 13.4606C21.9888 13.4606 21.5748 13.0838 21.5748 12.6192V9.25431Z" fill="#FFF3E5"/>
</g>
<g filter="url(#filter3_d_2022_3101)">
<path d="M29.9 15.1431C31.4318 15.1415 32.6733 14.0127 32.675 12.6192V5.88908C32.675 4.4953 31.4325 3.36523 29.9 3.36523C28.3672 3.36523 27.125 4.4953 27.125 5.88908V12.6192C27.1267 14.0127 28.3679 15.1415 29.9 15.1431ZM28.9749 5.88908C28.9749 5.42448 29.3892 5.04769 29.9 5.04769C30.4108 5.04769 30.8248 5.42448 30.8248 5.88908V12.6192C30.8248 13.0838 30.4108 13.4606 29.9 13.4606C29.3892 13.4606 28.9749 13.0838 28.9749 12.6192V5.88908Z" fill="#FFF3E5"/>
</g>
<g filter="url(#filter4_d_2022_3101)">
<path d="M35.8357 10.2018C35.5935 10.3598 35.4499 10.6143 35.4502 10.8854V15.448C37.9478 14.9887 40.3254 13.896 40.9443 13.0535C40.6767 11.8801 39.2496 10.8832 36.6724 10.0884C36.3895 10.0025 36.0786 10.0447 35.8357 10.2018Z" fill="#FFF3E5"/>
</g>
<g filter="url(#filter5_d_2022_3101)">
<path d="M9.54977 15.4476V10.885C9.54977 10.6139 9.4058 10.3592 9.1636 10.2014C8.9214 10.0434 8.61009 10.0012 8.32758 10.0881C5.75007 10.8832 4.32327 11.88 4.05566 13.0531C4.67455 13.8956 7.0522 14.9883 9.54977 15.4476Z" fill="#FFF3E5"/>
</g>
<g filter="url(#filter6_d_2022_3101)">
<path d="M22.9626 18.5024V18.4987H22.0375V18.5024C11.5601 18.4399 5.65206 16.3089 4 15.1431V26.9212C4 30.2353 13.307 31.9689 22.4999 31.9689C31.6931 31.9689 41.0001 30.2353 41.0001 26.9212V15.1431C39.3481 16.3089 33.44 18.4399 22.9626 18.5024Z" fill="#FFF3E5"/>
</g>
<defs>
<filter id="filter0_d_2022_3101" x="30.5249" y="0" width="13.5498" height="13.0471" filterUnits="userSpaceOnUse" color-interpolation-filters="sRGB">
<feFlood flood-opacity="0" result="BackgroundImageFix"/>
<feColorMatrix in="SourceAlpha" type="matrix" values="0 0 0 0 0 0 0 0 0 0 0 0 0 0 0 0 0 0 127 0" result="hardAlpha"/>
<feOffset dy="4"/>
<feGaussianBlur stdDeviation="2"/>
<feComposite in2="hardAlpha" operator="out"/>
<feColorMatrix type="matrix" values="0 0 0 0 0.899038 0 0 0 0 0.465236 0 0 0 0 0.302561 0 0 0 1 0"/>
<feBlend mode="normal" in2="BackgroundImageFix" result="effect1_dropShadow_2022_3101"/>
<feBlend mode="normal" in="SourceGraphic" in2="effect1_dropShadow_2022_3101" result="shape"/>
</filter>
<filter id="filter1_d_2022_3101" x="8.3252" y="3.36523" width="13.5498" height="19.7778" filterUnits="userSpaceOnUse" color-interpolation-filters="sRGB">
<feFlood flood-opacity="0" result="BackgroundImageFix"/>
<feColorMatrix in="SourceAlpha" type="matrix" values="0 0 0 0 0 0 0 0 0 0 0 0 0 0 0 0 0 0 127 0" result="hardAlpha"/>
<feOffset dy="4"/>
<feGaussianBlur stdDeviation="2"/>
<feComposite in2="hardAlpha" operator="out"/>
<feColorMatrix type="matrix" values="0 0 0 0 0.899038 0 0 0 0 0.465236 0 0 0 0 0.302561 0 0 0 1 0"/>
<feBlend mode="normal" in2="BackgroundImageFix" result="effect1_dropShadow_2022_3101"/>
<feBlend mode="normal" in="SourceGraphic" in2="effect1_dropShadow_2022_3101" result="shape"/>
</filter>
<filter id="filter2_d_2022_3101" x="15.7246" y="3.36523" width="13.5498" height="19.7778" filterUnits="userSpaceOnUse" color-interpolation-filters="sRGB">
<feFlood flood-opacity="0" result="BackgroundImageFix"/>
<feColorMatrix in="SourceAlpha" type="matrix" values="0 0 0 0 0 0 0 0 0 0 0 0 0 0 0 0 0 0 127 0" result="hardAlpha"/>
<feOffset dy="4"/>
<feGaussianBlur stdDeviation="2"/>
<feComposite in2="hardAlpha" operator="out"/>
<feColorMatrix type="matrix" values="0 0 0 0 0.899038 0 0 0 0 0.465236 0 0 0 0 0.302561 0 0 0 1 0"/>
<feBlend mode="normal" in2="BackgroundImageFix" result="effect1_dropShadow_2022_3101"/>
<feBlend mode="normal" in="SourceGraphic" in2="effect1_dropShadow_2022_3101" result="shape"/>
</filter>
<filter id="filter3_d_2022_3101" x="23.125" y="3.36523" width="13.5498" height="19.7778" filterUnits="userSpaceOnUse" color-interpolation-filters="sRGB">
<feFlood flood-opacity="0" result="BackgroundImageFix"/>
<feColorMatrix in="SourceAlpha" type="matrix" values="0 0 0 0 0 0 0 0 0 0 0 0 0 0 0 0 0 0 127 0" result="hardAlpha"/>
<feOffset dy="4"/>
<feGaussianBlur stdDeviation="2"/>
<feComposite in2="hardAlpha" operator="out"/>
<feColorMatrix type="matrix" values="0 0 0 0 0.899038 0 0 0 0 0.465236 0 0 0 0 0.302561 0 0 0 1 0"/>
<feBlend mode="normal" in2="BackgroundImageFix" result="effect1_dropShadow_2022_3101"/>
<feBlend mode="normal" in="SourceGraphic" in2="effect1_dropShadow_2022_3101" result="shape"/>
</filter>
<filter id="filter4_d_2022_3101" x="31.4502" y="10.0447" width="13.4941" height="13.4033" filterUnits="userSpaceOnUse" color-interpolation-filters="sRGB">
<feFlood flood-opacity="0" result="BackgroundImageFix"/>
<feColorMatrix in="SourceAlpha" type="matrix" values="0 0 0 0 0 0 0 0 0 0 0 0 0 0 0 0 0 0 127 0" result="hardAlpha"/>
<feOffset dy="4"/>
<feGaussianBlur stdDeviation="2"/>
<feComposite in2="hardAlpha" operator="out"/>
<feColorMatrix type="matrix" values="0 0 0 0 0.899038 0 0 0 0 0.465236 0 0 0 0 0.302561 0 0 0 1 0"/>
<feBlend mode="normal" in2="BackgroundImageFix" result="effect1_dropShadow_2022_3101"/>
<feBlend mode="normal" in="SourceGraphic" in2="effect1_dropShadow_2022_3101" result="shape"/>
</filter>
<filter id="filter5_d_2022_3101" x="0.0556641" y="10.0437" width="13.4941" height="13.4038" filterUnits="userSpaceOnUse" color-interpolation-filters="sRGB">
<feFlood flood-opacity="0" result="BackgroundImageFix"/>
<feColorMatrix in="SourceAlpha" type="matrix" values="0 0 0 0 0 0 0 0 0 0 0 0 0 0 0 0 0 0 127 0" result="hardAlpha"/>
<feOffset dy="4"/>
<feGaussianBlur stdDeviation="2"/>
<feComposite in2="hardAlpha" operator="out"/>
<feColorMatrix type="matrix" values="0 0 0 0 0.899038 0 0 0 0 0.465236 0 0 0 0 0.302561 0 0 0 1 0"/>
<feBlend mode="normal" in2="BackgroundImageFix" result="effect1_dropShadow_2022_3101"/>
<feBlend mode="normal" in="SourceGraphic" in2="effect1_dropShadow_2022_3101" result="shape"/>
</filter>
<filter id="filter6_d_2022_3101" x="0" y="15.1431" width="45" height="24.8259" filterUnits="userSpaceOnUse" color-interpolation-filters="sRGB">
<feFlood flood-opacity="0" result="BackgroundImageFix"/>
<feColorMatrix in="SourceAlpha" type="matrix" values="0 0 0 0 0 0 0 0 0 0 0 0 0 0 0 0 0 0 127 0" result="hardAlpha"/>
<feOffset dy="4"/>
<feGaussianBlur stdDeviation="2"/>
<feComposite in2="hardAlpha" operator="out"/>
<feColorMatrix type="matrix" values="0 0 0 0 0.899038 0 0 0 0 0.465236 0 0 0 0 0.302561 0 0 0 1 0"/>
<feBlend mode="normal" in2="BackgroundImageFix" result="effect1_dropShadow_2022_3101"/>
<feBlend mode="normal" in="SourceGraphic" in2="effect1_dropShadow_2022_3101" result="shape"/>
</filter>
</defs>
</svg>
