<svg width="39" height="39" viewBox="0 0 39 39" fill="none" xmlns="http://www.w3.org/2000/svg">
<g filter="url(#filter0_d_2020_1236)">
<path d="M20.6071 0H7.32143C6.44053 0 5.59571 0.349935 4.97282 0.972824C4.34994 1.59571 4 2.44053 4 3.32143V29.8929C4 30.1865 4.11665 30.4681 4.32427 30.6757C4.5319 30.8834 4.81351 31 5.10714 31H10.6429V23.25C10.6429 22.9564 10.7595 22.6748 10.9671 22.4671C11.1748 22.2595 11.4564 22.1429 11.75 22.1429H16.1786C16.4722 22.1429 16.7538 22.2595 16.9614 22.4671C17.1691 22.6748 17.2857 22.9564 17.2857 23.25V31H23.9286V3.32143C23.9286 2.44053 23.5786 1.59571 22.9557 0.972824C22.3329 0.349935 21.488 0 20.6071 0ZM11.75 18.8214H9.53571C9.24208 18.8214 8.96048 18.7048 8.75285 18.4972C8.54522 18.2895 8.42857 18.0079 8.42857 17.7143C8.42857 17.4207 8.54522 17.139 8.75285 16.9314C8.96048 16.7238 9.24208 16.6071 9.53571 16.6071H11.75C12.0436 16.6071 12.3252 16.7238 12.5329 16.9314C12.7405 17.139 12.8571 17.4207 12.8571 17.7143C12.8571 18.0079 12.7405 18.2895 12.5329 18.4972C12.3252 18.7048 12.0436 18.8214 11.75 18.8214ZM11.75 13.2857H9.53571C9.24208 13.2857 8.96048 13.1691 8.75285 12.9614C8.54522 12.7538 8.42857 12.4722 8.42857 12.1786C8.42857 11.8849 8.54522 11.6033 8.75285 11.3957C8.96048 11.1881 9.24208 11.0714 9.53571 11.0714H11.75C12.0436 11.0714 12.3252 11.1881 12.5329 11.3957C12.7405 11.6033 12.8571 11.8849 12.8571 12.1786C12.8571 12.4722 12.7405 12.7538 12.5329 12.9614C12.3252 13.1691 12.0436 13.2857 11.75 13.2857ZM11.75 7.75H9.53571C9.24208 7.75 8.96048 7.63335 8.75285 7.42572C8.54522 7.2181 8.42857 6.93649 8.42857 6.64286C8.42857 6.34922 8.54522 6.06762 8.75285 5.85999C8.96048 5.65236 9.24208 5.53571 9.53571 5.53571H11.75C12.0436 5.53571 12.3252 5.65236 12.5329 5.85999C12.7405 6.06762 12.8571 6.34922 12.8571 6.64286C12.8571 6.93649 12.7405 7.2181 12.5329 7.42572C12.3252 7.63335 12.0436 7.75 11.75 7.75ZM18.3929 18.8214H16.1786C15.8849 18.8214 15.6033 18.7048 15.3957 18.4972C15.1881 18.2895 15.0714 18.0079 15.0714 17.7143C15.0714 17.4207 15.1881 17.139 15.3957 16.9314C15.6033 16.7238 15.8849 16.6071 16.1786 16.6071H18.3929C18.6865 16.6071 18.9681 16.7238 19.1757 16.9314C19.3834 17.139 19.5 17.4207 19.5 17.7143C19.5 18.0079 19.3834 18.2895 19.1757 18.4972C18.9681 18.7048 18.6865 18.8214 18.3929 18.8214ZM18.3929 13.2857H16.1786C15.8849 13.2857 15.6033 13.1691 15.3957 12.9614C15.1881 12.7538 15.0714 12.4722 15.0714 12.1786C15.0714 11.8849 15.1881 11.6033 15.3957 11.3957C15.6033 11.1881 15.8849 11.0714 16.1786 11.0714H18.3929C18.6865 11.0714 18.9681 11.1881 19.1757 11.3957C19.3834 11.6033 19.5 11.8849 19.5 12.1786C19.5 12.4722 19.3834 12.7538 19.1757 12.9614C18.9681 13.1691 18.6865 13.2857 18.3929 13.2857ZM18.3929 7.75H16.1786C15.8849 7.75 15.6033 7.63335 15.3957 7.42572C15.1881 7.2181 15.0714 6.93649 15.0714 6.64286C15.0714 6.34922 15.1881 6.06762 15.3957 5.85999C15.6033 5.65236 15.8849 5.53571 16.1786 5.53571H18.3929C18.6865 5.53571 18.9681 5.65236 19.1757 5.85999C19.3834 6.06762 19.5 6.34922 19.5 6.64286C19.5 6.93649 19.3834 7.2181 19.1757 7.42572C18.9681 7.63335 18.6865 7.75 18.3929 7.75Z" fill="white"/>
<path d="M31.6785 5.53564H26.1428V11.0714H29.4643C29.7579 11.0714 30.0395 11.188 30.2471 11.3956C30.4547 11.6033 30.5714 11.8849 30.5714 12.1785C30.5714 12.4721 30.4547 12.7537 30.2471 12.9614C30.0395 13.169 29.7579 13.2856 29.4643 13.2856H26.1428V16.6071H29.4643C29.7579 16.6071 30.0395 16.7237 30.2471 16.9313C30.4547 17.139 30.5714 17.4206 30.5714 17.7142C30.5714 18.0078 30.4547 18.2895 30.2471 18.4971C30.0395 18.7047 29.7579 18.8214 29.4643 18.8214H26.1428V22.1428H29.4643C29.7579 22.1428 30.0395 22.2594 30.2471 22.4671C30.4547 22.6747 30.5714 22.9563 30.5714 23.2499C30.5714 23.5436 30.4547 23.8252 30.2471 24.0328C30.0395 24.2404 29.7579 24.3571 29.4643 24.3571H26.1428V30.9999H33.8928C34.1865 30.9999 34.4681 30.8833 34.6757 30.6757C34.8833 30.468 35 30.1864 35 29.8928V8.85707C35 7.97618 34.65 7.13136 34.0271 6.50847C33.4043 5.88558 32.5594 5.53564 31.6785 5.53564Z" fill="white"/>
</g>
<defs>
<filter id="filter0_d_2020_1236" x="0" y="0" width="39" height="39" filterUnits="userSpaceOnUse" color-interpolation-filters="sRGB">
<feFlood flood-opacity="0" result="BackgroundImageFix"/>
<feColorMatrix in="SourceAlpha" type="matrix" values="0 0 0 0 0 0 0 0 0 0 0 0 0 0 0 0 0 0 127 0" result="hardAlpha"/>
<feOffset dy="4"/>
<feGaussianBlur stdDeviation="2"/>
<feComposite in2="hardAlpha" operator="out"/>
<feColorMatrix type="matrix" values="0 0 0 0 0.0872319 0 0 0 0 0.490385 0 0 0 0 0.271126 0 0 0 1 0"/>
<feBlend mode="normal" in2="BackgroundImageFix" result="effect1_dropShadow_2020_1236"/>
<feBlend mode="normal" in="SourceGraphic" in2="effect1_dropShadow_2020_1236" result="shape"/>
</filter>
</defs>
</svg>
