<svg width="44" height="44" viewBox="0 0 44 44" fill="none" xmlns="http://www.w3.org/2000/svg">
<g filter="url(#filter0_d_2083_138)">
<path d="M4 35.9998H25.8571V21.8569H4V35.9998ZM22 25.0712C22 24.7162 22.2878 24.4284 22.6429 24.4284C22.9979 24.4284 23.2857 24.7162 23.2857 25.0712V32.7855C23.2857 33.1405 22.9979 33.4284 22.6429 33.4284C22.2878 33.4284 22 33.1405 22 32.7855V25.0712ZM18.1429 25.0712C18.1429 24.7162 18.4307 24.4284 18.7857 24.4284C19.1407 24.4284 19.4286 24.7162 19.4286 25.0712V32.7855C19.4286 33.1405 19.1407 33.4284 18.7857 33.4284C18.4307 33.4284 18.1429 33.1405 18.1429 32.7855V25.0712ZM14.2857 25.0712C14.2857 24.7162 14.5736 24.4284 14.9286 24.4284C15.2836 24.4284 15.5714 24.7162 15.5714 25.0712V32.7855C15.5714 33.1405 15.2836 33.4284 14.9286 33.4284C14.5736 33.4284 14.2857 33.1405 14.2857 32.7855V25.0712ZM10.4286 25.0712C10.4286 24.7162 10.7164 24.4284 11.0714 24.4284C11.4264 24.4284 11.7143 24.7162 11.7143 25.0712V32.7855C11.7143 33.1405 11.4264 33.4284 11.0714 33.4284C10.7164 33.4284 10.4286 33.1405 10.4286 32.7855V25.0712ZM6.57143 25.0712C6.57143 24.7162 6.85927 24.4284 7.21429 24.4284C7.5693 24.4284 7.85714 24.7162 7.85714 25.0712V32.7855C7.85714 33.1405 7.5693 33.4284 7.21429 33.4284C6.85927 33.4284 6.57143 33.1405 6.57143 32.7855V25.0712Z" fill="white"/>
</g>
<g filter="url(#filter1_d_2083_138)">
<path d="M27.1428 21.8569V35.9998H40V21.8569H27.1428ZM31 32.7855C31 33.1405 30.7121 33.4284 30.3571 33.4284C30.0021 33.4284 29.7143 33.1405 29.7143 32.7855V25.0712C29.7143 24.7162 30.0021 24.4284 30.3571 24.4284C30.7121 24.4284 31 24.7162 31 25.0712V32.7855ZM34.2143 32.7855C34.2143 33.1405 33.9264 33.4284 33.5714 33.4284C33.2164 33.4284 32.9285 33.1405 32.9285 32.7855V25.0712C32.9285 24.7162 33.2164 24.4284 33.5714 24.4284C33.9264 24.4284 34.2143 24.7162 34.2143 25.0712V32.7855ZM37.4285 32.7855C37.4285 33.1405 37.1407 33.4284 36.7857 33.4284C36.4307 33.4284 36.1428 33.1405 36.1428 32.7855V25.0712C36.1428 24.7162 36.4307 24.4284 36.7857 24.4284C37.1407 24.4284 37.4285 24.7162 37.4285 25.0712V32.7855Z" fill="white"/>
</g>
<g filter="url(#filter2_d_2083_138)">
<path d="M20.7144 6.42836C21.4245 6.42836 22.0001 5.85268 22.0001 5.14265V3.85693H19.4287V5.14265C19.4287 5.85268 20.0044 6.42836 20.7144 6.42836Z" fill="white"/>
</g>
<g filter="url(#filter3_d_2083_138)">
<path d="M20.0713 0H21.357V2.57143H20.0713V0Z" fill="white"/>
</g>
<g filter="url(#filter4_d_2083_138)">
<path d="M14.5011 20.7893L20.3176 15.3894C20.4491 15.4107 20.5816 15.4236 20.7144 15.4286C20.8289 15.4233 20.9432 15.4117 21.0565 15.3938L26.4357 20.7715L28.2422 20.7598L22.4147 14.9317C23.3542 14.3476 23.9264 13.3205 23.9286 12.2144C23.9286 11.8593 23.6408 11.5715 23.2858 11.5715C22.9308 11.5715 22.6429 11.8593 22.6429 12.2144C22.6426 12.9875 22.1806 13.6859 21.469 13.9885L21.1689 13.6884C20.9244 13.4439 20.5298 13.4367 20.2765 13.6724L19.945 13.9803C19.1104 13.614 18.6461 12.7134 18.8319 11.821C19.0178 10.929 19.8028 10.2886 20.7144 10.2858H21.3572V7.71436H20.0715V9.06442C18.7949 9.32338 17.8014 10.3278 17.5569 11.607C17.312 12.8864 17.8648 14.1866 18.9556 14.8982L12.6614 20.7432L14.5011 20.7893Z" fill="white"/>
</g>
<defs>
<filter id="filter0_d_2083_138" x="0" y="21.8569" width="29.8572" height="22.1428" filterUnits="userSpaceOnUse" color-interpolation-filters="sRGB">
<feFlood flood-opacity="0" result="BackgroundImageFix"/>
<feColorMatrix in="SourceAlpha" type="matrix" values="0 0 0 0 0 0 0 0 0 0 0 0 0 0 0 0 0 0 127 0" result="hardAlpha"/>
<feOffset dy="4"/>
<feGaussianBlur stdDeviation="2"/>
<feComposite in2="hardAlpha" operator="out"/>
<feColorMatrix type="matrix" values="0 0 0 0 0.0999445 0 0 0 0 0.451923 0 0 0 0 0.260496 0 0 0 1 0"/>
<feBlend mode="normal" in2="BackgroundImageFix" result="effect1_dropShadow_2083_138"/>
<feBlend mode="normal" in="SourceGraphic" in2="effect1_dropShadow_2083_138" result="shape"/>
</filter>
<filter id="filter1_d_2083_138" x="23.1428" y="21.8569" width="20.8572" height="22.1428" filterUnits="userSpaceOnUse" color-interpolation-filters="sRGB">
<feFlood flood-opacity="0" result="BackgroundImageFix"/>
<feColorMatrix in="SourceAlpha" type="matrix" values="0 0 0 0 0 0 0 0 0 0 0 0 0 0 0 0 0 0 127 0" result="hardAlpha"/>
<feOffset dy="4"/>
<feGaussianBlur stdDeviation="2"/>
<feComposite in2="hardAlpha" operator="out"/>
<feColorMatrix type="matrix" values="0 0 0 0 0.0999445 0 0 0 0 0.451923 0 0 0 0 0.260496 0 0 0 1 0"/>
<feBlend mode="normal" in2="BackgroundImageFix" result="effect1_dropShadow_2083_138"/>
<feBlend mode="normal" in="SourceGraphic" in2="effect1_dropShadow_2083_138" result="shape"/>
</filter>
<filter id="filter2_d_2083_138" x="15.4287" y="3.85693" width="10.5715" height="10.5715" filterUnits="userSpaceOnUse" color-interpolation-filters="sRGB">
<feFlood flood-opacity="0" result="BackgroundImageFix"/>
<feColorMatrix in="SourceAlpha" type="matrix" values="0 0 0 0 0 0 0 0 0 0 0 0 0 0 0 0 0 0 127 0" result="hardAlpha"/>
<feOffset dy="4"/>
<feGaussianBlur stdDeviation="2"/>
<feComposite in2="hardAlpha" operator="out"/>
<feColorMatrix type="matrix" values="0 0 0 0 0.0999445 0 0 0 0 0.451923 0 0 0 0 0.260496 0 0 0 1 0"/>
<feBlend mode="normal" in2="BackgroundImageFix" result="effect1_dropShadow_2083_138"/>
<feBlend mode="normal" in="SourceGraphic" in2="effect1_dropShadow_2083_138" result="shape"/>
</filter>
<filter id="filter3_d_2083_138" x="16.0713" y="0" width="9.28564" height="10.5715" filterUnits="userSpaceOnUse" color-interpolation-filters="sRGB">
<feFlood flood-opacity="0" result="BackgroundImageFix"/>
<feColorMatrix in="SourceAlpha" type="matrix" values="0 0 0 0 0 0 0 0 0 0 0 0 0 0 0 0 0 0 127 0" result="hardAlpha"/>
<feOffset dy="4"/>
<feGaussianBlur stdDeviation="2"/>
<feComposite in2="hardAlpha" operator="out"/>
<feColorMatrix type="matrix" values="0 0 0 0 0.0999445 0 0 0 0 0.451923 0 0 0 0 0.260496 0 0 0 1 0"/>
<feBlend mode="normal" in2="BackgroundImageFix" result="effect1_dropShadow_2083_138"/>
<feBlend mode="normal" in="SourceGraphic" in2="effect1_dropShadow_2083_138" result="shape"/>
</filter>
<filter id="filter4_d_2083_138" x="8.66138" y="7.71436" width="23.5808" height="21.075" filterUnits="userSpaceOnUse" color-interpolation-filters="sRGB">
<feFlood flood-opacity="0" result="BackgroundImageFix"/>
<feColorMatrix in="SourceAlpha" type="matrix" values="0 0 0 0 0 0 0 0 0 0 0 0 0 0 0 0 0 0 127 0" result="hardAlpha"/>
<feOffset dy="4"/>
<feGaussianBlur stdDeviation="2"/>
<feComposite in2="hardAlpha" operator="out"/>
<feColorMatrix type="matrix" values="0 0 0 0 0.0999445 0 0 0 0 0.451923 0 0 0 0 0.260496 0 0 0 1 0"/>
<feBlend mode="normal" in2="BackgroundImageFix" result="effect1_dropShadow_2083_138"/>
<feBlend mode="normal" in="SourceGraphic" in2="effect1_dropShadow_2083_138" result="shape"/>
</filter>
</defs>
</svg>
