<svg width="33" height="40" viewBox="0 0 33 40" fill="none" xmlns="http://www.w3.org/2000/svg">
<g filter="url(#filter0_d_2083_136)">
<path d="M27.5533 2.69988C27.0225 2.168 26.3166 1.875 25.5656 1.875H24.3191V3.125C24.3191 4.5035 23.1988 5.625 21.8218 5.625H10.5843C9.20731 5.625 8.08706 4.5035 8.08706 3.125V1.875H6.83638C5.289 1.875 4.02875 3.13525 4.027 4.68437L4 29.1844C3.99913 29.9362 4.291 30.6432 4.82169 31.1751C5.3525 31.7071 6.05838 32 6.80938 32H25.5386C27.0859 32 28.3463 30.7397 28.3479 29.1906L28.375 4.69063C28.3759 3.93881 28.084 3.23181 27.5533 2.69988ZM16.5059 11.25H23.1592C23.6764 11.25 24.0956 11.6698 24.0956 12.1875C24.0956 12.7052 23.6764 13.125 23.1592 13.125H16.5059C15.9887 13.125 15.5694 12.7052 15.5694 12.1875C15.5694 11.6698 15.9887 11.25 16.5059 11.25ZM16.5059 17.5H23.1592C23.6764 17.5 24.0956 17.9198 24.0956 18.4375C24.0956 18.9552 23.6764 19.375 23.1592 19.375H16.5059C15.9887 19.375 15.5694 18.9552 15.5694 18.4375C15.5694 17.9198 15.9887 17.5 16.5059 17.5ZM16.5059 23.75H23.1859C23.7031 23.75 24.1224 24.1698 24.1224 24.6875C24.1224 25.2052 23.7031 25.625 23.1859 25.625H16.5059C15.9887 25.625 15.5694 25.2052 15.5694 24.6875C15.5694 24.1698 15.9887 23.75 16.5059 23.75ZM8.52694 11.287C8.89269 10.9209 9.48556 10.9209 9.85131 11.287L10.3605 11.7968L12.5201 9.63481C12.8859 9.26875 13.4788 9.26862 13.8444 9.63481C14.2101 10.0009 14.2101 10.5945 13.8444 10.9606L11.0226 13.7855C10.847 13.9613 10.6088 14.0601 10.3604 14.0601C10.1121 14.0601 9.87388 13.9614 9.69825 13.7855L8.52688 12.6128C8.16119 12.2467 8.16119 11.6531 8.52694 11.287ZM8.52694 18.0143C8.89269 17.6482 9.48556 17.6482 9.85131 18.0143L10.3605 18.5241L12.5201 16.3621C12.8858 15.996 13.4788 15.996 13.8444 16.3621C14.2101 16.7281 14.2101 17.3218 13.8444 17.6879L11.0226 20.5128C10.8471 20.6886 10.6088 20.7874 10.3604 20.7874C10.1121 20.7874 9.87388 20.6887 9.69825 20.5128L8.52688 19.3401C8.16119 18.974 8.16119 18.3804 8.52694 18.0143ZM8.52694 24.2643C8.89269 23.8982 9.48556 23.8982 9.85131 24.2643L10.3605 24.7741L12.5201 22.6121C12.8858 22.246 13.4788 22.246 13.8444 22.6121C14.2101 22.9781 14.2101 23.5718 13.8444 23.9379L11.0226 26.7628C10.8471 26.9386 10.6088 27.0374 10.3604 27.0374C10.1121 27.0374 9.87388 26.9387 9.69825 26.7628L8.52688 25.5901C8.16119 25.224 8.16119 24.6304 8.52694 24.2643Z" fill="white"/>
</g>
<g filter="url(#filter1_d_2083_136)">
<path d="M9.95996 3.125C9.95996 3.47019 10.2395 3.75 10.5843 3.75H21.8218C22.1666 3.75 22.4461 3.47019 22.4461 3.125V0.625C22.4461 0.279813 22.1666 0 21.8218 0H10.5843C10.2395 0 9.95996 0.279813 9.95996 0.625V3.125Z" fill="white"/>
</g>
<defs>
<filter id="filter0_d_2083_136" x="0" y="1.875" width="32.375" height="38.125" filterUnits="userSpaceOnUse" color-interpolation-filters="sRGB">
<feFlood flood-opacity="0" result="BackgroundImageFix"/>
<feColorMatrix in="SourceAlpha" type="matrix" values="0 0 0 0 0 0 0 0 0 0 0 0 0 0 0 0 0 0 127 0" result="hardAlpha"/>
<feOffset dy="4"/>
<feGaussianBlur stdDeviation="2"/>
<feComposite in2="hardAlpha" operator="out"/>
<feColorMatrix type="matrix" values="0 0 0 0 0.165033 0 0 0 0 0.403846 0 0 0 0 0.273965 0 0 0 1 0"/>
<feBlend mode="normal" in2="BackgroundImageFix" result="effect1_dropShadow_2083_136"/>
<feBlend mode="normal" in="SourceGraphic" in2="effect1_dropShadow_2083_136" result="shape"/>
</filter>
<filter id="filter1_d_2083_136" x="5.95996" y="0" width="20.4861" height="11.75" filterUnits="userSpaceOnUse" color-interpolation-filters="sRGB">
<feFlood flood-opacity="0" result="BackgroundImageFix"/>
<feColorMatrix in="SourceAlpha" type="matrix" values="0 0 0 0 0 0 0 0 0 0 0 0 0 0 0 0 0 0 127 0" result="hardAlpha"/>
<feOffset dy="4"/>
<feGaussianBlur stdDeviation="2"/>
<feComposite in2="hardAlpha" operator="out"/>
<feColorMatrix type="matrix" values="0 0 0 0 0.165033 0 0 0 0 0.403846 0 0 0 0 0.273965 0 0 0 1 0"/>
<feBlend mode="normal" in2="BackgroundImageFix" result="effect1_dropShadow_2083_136"/>
<feBlend mode="normal" in="SourceGraphic" in2="effect1_dropShadow_2083_136" result="shape"/>
</filter>
</defs>
</svg>
