<svg width="33" height="36" viewBox="0 0 33 36" fill="none" xmlns="http://www.w3.org/2000/svg">
<g filter="url(#filter0_d_2022_3096)">
<path d="M25.4266 0H6.73438C6.00926 0.000243876 5.31391 0.262334 4.80118 0.728665C4.28844 1.195 4.00027 1.82741 4 2.4869V25.3663C4.00027 26.0258 4.28844 26.6582 4.80118 27.1246C5.31391 27.5909 6.00926 27.853 6.73438 27.8532H25.4266C26.1517 27.853 26.847 27.5909 27.3598 27.1246C27.8725 26.6582 28.1607 26.0258 28.1609 25.3663V2.4869C28.1607 1.82741 27.8725 1.195 27.3598 0.728665C26.847 0.262334 26.1517 0.000243876 25.4266 0ZM8.42422 11.1413H11.268C11.7027 11.1425 12.1193 11.3 12.4267 11.5796C12.7341 11.8592 12.9073 12.2381 12.9086 12.6334V15.2198C12.9073 15.6152 12.7341 15.994 12.4267 16.2736C12.1193 16.5532 11.7027 16.7108 11.268 16.7119H8.42422C7.98949 16.7108 7.57293 16.5532 7.26552 16.2736C6.95812 15.9941 6.78486 15.6152 6.78359 15.2198V12.6334C6.78487 12.2381 6.95813 11.8592 7.26553 11.5796C7.57293 11.3 7.98949 11.1425 8.42422 11.1413ZM6.78359 7.11252V4.52615C6.78487 4.13077 6.95813 3.75191 7.26553 3.47233C7.57293 3.19275 7.98949 3.03517 8.42422 3.03401H11.268C11.7027 3.03518 12.1193 3.19276 12.4267 3.47234C12.7341 3.75191 12.9073 4.13077 12.9086 4.52615V7.11252C12.9073 7.50791 12.7341 7.88677 12.4267 8.16635C12.1193 8.44592 11.7027 8.6035 11.268 8.60466H8.42422C7.98949 8.60351 7.57293 8.44593 7.26552 8.16635C6.95812 7.88677 6.78486 7.50791 6.78359 7.11252ZM8.42422 19.2486H11.268C11.7027 19.2497 12.1193 19.4073 12.4267 19.6869C12.7341 19.9665 12.9073 20.3453 12.9086 20.7407V23.3271C12.9073 23.7225 12.7341 24.1013 12.4267 24.3809C12.1193 24.6605 11.7027 24.8181 11.268 24.8192H8.42422C7.98949 24.8181 7.57293 24.6605 7.26552 24.3809C6.95812 24.1013 6.78486 23.7225 6.78359 23.3271V20.7407C6.78486 20.3453 6.95812 19.9665 7.26552 19.6869C7.57293 19.4073 7.98949 19.2497 8.42422 19.2486ZM14.325 12.5041H23.6711C23.8147 12.5061 23.9516 12.5594 24.0524 12.6525C24.1531 12.7455 24.2096 12.8709 24.2096 13.0015C24.2096 13.1321 24.1531 13.2574 24.0524 13.3505C23.9516 13.4436 23.8147 13.4969 23.6711 13.4989H14.325C14.1814 13.4969 14.0445 13.4436 13.9437 13.3505C13.843 13.2574 13.7865 13.1321 13.7865 13.0015C13.7865 12.8709 13.843 12.7455 13.9437 12.6525C14.0445 12.5594 14.1814 12.5061 14.325 12.5041ZM13.7781 6.74446C13.7786 6.61267 13.8363 6.48639 13.9388 6.3932C14.0412 6.30001 14.1801 6.24748 14.325 6.24708H21.9758C22.1208 6.24708 22.2599 6.29949 22.3625 6.39276C22.465 6.48604 22.5227 6.61255 22.5227 6.74446C22.5227 6.87638 22.465 7.00289 22.3625 7.09616C22.2599 7.18944 22.1208 7.24184 21.9758 7.24184H14.325C14.1801 7.24145 14.0412 7.18892 13.9388 7.09573C13.8363 7.00254 13.7786 6.87626 13.7781 6.74446ZM14.325 14.3544H21.9758C22.1194 14.3563 22.2564 14.4096 22.3573 14.5026C22.4581 14.5957 22.5146 14.7211 22.5146 14.8517C22.5146 14.9824 22.4581 15.1078 22.3573 15.2009C22.2564 15.2939 22.1194 15.3472 21.9758 15.3491H14.325C14.1814 15.3471 14.0445 15.2938 13.9437 15.2008C13.843 15.1077 13.7865 14.9823 13.7865 14.8517C13.7865 14.7212 13.843 14.5958 13.9437 14.5027C14.0445 14.4097 14.1814 14.3564 14.325 14.3544ZM14.325 20.6114H23.6711C23.8147 20.6134 23.9516 20.6667 24.0524 20.7598C24.1531 20.8528 24.2096 20.9782 24.2096 21.1088C24.2096 21.2394 24.1531 21.3647 24.0524 21.4578C23.9516 21.5508 23.8147 21.6041 23.6711 21.6062H14.325C14.1814 21.6041 14.0445 21.5508 13.9437 21.4578C13.843 21.3647 13.7865 21.2394 13.7865 21.1088C13.7865 20.9782 13.843 20.8528 13.9437 20.7598C14.0445 20.6667 14.1814 20.6134 14.325 20.6114ZM14.325 22.4617H21.9758C22.1194 22.4636 22.2564 22.5168 22.3573 22.6099C22.4581 22.703 22.5146 22.8284 22.5146 22.959C22.5146 23.0897 22.4581 23.2151 22.3573 23.3081C22.2564 23.4012 22.1194 23.4545 21.9758 23.4564H14.325C14.1814 23.4545 14.0443 23.4012 13.9435 23.3081C13.8427 23.2151 13.7862 23.0897 13.7862 22.959C13.7862 22.8284 13.8427 22.703 13.9435 22.6099C14.0443 22.5168 14.1814 22.4636 14.325 22.4617ZM23.6711 5.39159H14.325C14.1814 5.38965 14.0443 5.33639 13.9435 5.24332C13.8427 5.15026 13.7862 5.02485 13.7862 4.8942C13.7862 4.76355 13.8427 4.63815 13.9435 4.54508C14.0444 4.45202 14.1814 4.39877 14.325 4.39683H23.6711C23.8147 4.39877 23.9518 4.45203 24.0526 4.54509C24.1534 4.63816 24.2099 4.76356 24.2099 4.89421C24.2099 5.02486 24.1534 5.15027 24.0526 5.24333C23.9518 5.3364 23.8147 5.38965 23.6711 5.39159Z" fill="#FFF3E5"/>
<path d="M11.2681 4.02905H8.42432C8.12229 4.02905 7.87744 4.25171 7.87744 4.52638V7.1125C7.87744 7.38716 8.12229 7.60983 8.42432 7.60983H11.2681C11.5701 7.60983 11.8149 7.38716 11.8149 7.1125V4.52638C11.8149 4.25171 11.5701 4.02905 11.2681 4.02905Z" fill="#FFF3E5"/>
<path d="M11.2681 12.1362H8.42432C8.12229 12.1362 7.87744 12.3589 7.87744 12.6336V15.2197C7.87744 15.4943 8.12229 15.717 8.42432 15.717H11.2681C11.5701 15.717 11.8149 15.4943 11.8149 15.2197V12.6336C11.8149 12.3589 11.5701 12.1362 11.2681 12.1362Z" fill="#FFF3E5"/>
<path d="M11.2681 20.2434H8.42432C8.12229 20.2434 7.87744 20.4661 7.87744 20.7407V23.3269C7.87744 23.6015 8.12229 23.8242 8.42432 23.8242H11.2681C11.5701 23.8242 11.8149 23.6015 11.8149 23.3269V20.7407C11.8149 20.4661 11.5701 20.2434 11.2681 20.2434Z" fill="#FFF3E5"/>
</g>
<defs>
<filter id="filter0_d_2022_3096" x="0" y="0" width="32.1611" height="35.8533" filterUnits="userSpaceOnUse" color-interpolation-filters="sRGB">
<feFlood flood-opacity="0" result="BackgroundImageFix"/>
<feColorMatrix in="SourceAlpha" type="matrix" values="0 0 0 0 0 0 0 0 0 0 0 0 0 0 0 0 0 0 127 0" result="hardAlpha"/>
<feOffset dy="4"/>
<feGaussianBlur stdDeviation="2"/>
<feComposite in2="hardAlpha" operator="out"/>
<feColorMatrix type="matrix" values="0 0 0 0 0.879808 0 0 0 0 0.71369 0 0 0 0 0.651396 0 0 0 1 0"/>
<feBlend mode="normal" in2="BackgroundImageFix" result="effect1_dropShadow_2022_3096"/>
<feBlend mode="normal" in="SourceGraphic" in2="effect1_dropShadow_2022_3096" result="shape"/>
</filter>
</defs>
</svg>
