<svg width="37" height="35" viewBox="0 0 37 35" fill="none" xmlns="http://www.w3.org/2000/svg">
<g filter="url(#filter0_d_2022_3089)">
<path d="M32.3579 23.0002L25.0093 16.3166C26.2929 14.6002 26.9845 12.576 26.9845 10.4546C26.9845 7.66199 25.7888 5.03661 23.6178 3.06209C21.4466 1.08736 18.56 0 15.4896 0C12.4193 0 9.53263 1.08742 7.36138 3.06209C2.87953 7.13826 2.87953 13.7707 7.36144 17.8469C9.53263 19.8217 12.4192 20.909 15.4896 20.909C17.8221 20.909 20.0478 20.2799 21.935 19.1126L29.2836 25.7961C29.708 26.1822 30.2644 26.3753 30.8208 26.3753C31.3771 26.3753 31.9335 26.1823 32.3579 25.7961C33.2068 25.024 33.2068 23.7722 32.3579 23.0002ZM20.8304 15.3121C19.4039 16.6096 17.507 17.3241 15.4895 17.3241C13.472 17.3241 11.5751 16.6096 10.1484 15.3121C7.20344 12.6336 7.20344 8.27542 10.1484 5.59696C11.5751 4.29947 13.4719 3.58489 15.4895 3.58489C17.5071 3.58489 19.4039 4.29947 20.8305 5.59696C22.2571 6.89445 23.0428 8.61961 23.0428 10.4546C23.0428 12.2895 22.2571 14.0146 20.8304 15.3121Z" fill="#FFF3E5"/>
<path d="M18.1897 6.60904C17.7097 7.02427 17.6907 7.7148 18.1473 8.1514C18.9117 8.88226 19.3326 9.83064 19.3326 10.8218C19.3326 11.4243 19.8697 11.9127 20.5322 11.9127C21.1948 11.9127 21.7319 11.4243 21.7319 10.8218C21.7319 9.2684 21.0762 7.78598 19.8857 6.64771C19.4291 6.2111 18.6699 6.19382 18.1897 6.60904Z" fill="#FFF3E5"/>
<path d="M16.5329 4.87421C15.9715 4.7464 15.3907 4.68164 14.8065 4.68164C14.144 4.68164 13.6069 5.17014 13.6069 5.77271C13.6069 6.37528 14.144 6.86379 14.8065 6.86379C15.1945 6.86379 15.5794 6.90661 15.9504 6.99104C16.0481 7.01331 16.1461 7.02394 16.2425 7.02394C16.7799 7.02394 17.269 6.6931 17.4054 6.19751C17.5663 5.61294 17.1757 5.02046 16.5329 4.87421Z" fill="#FFF3E5"/>
</g>
<defs>
<filter id="filter0_d_2022_3089" x="0" y="0" width="36.9946" height="34.3752" filterUnits="userSpaceOnUse" color-interpolation-filters="sRGB">
<feFlood flood-opacity="0" result="BackgroundImageFix"/>
<feColorMatrix in="SourceAlpha" type="matrix" values="0 0 0 0 0 0 0 0 0 0 0 0 0 0 0 0 0 0 127 0" result="hardAlpha"/>
<feOffset dy="4"/>
<feGaussianBlur stdDeviation="2"/>
<feComposite in2="hardAlpha" operator="out"/>
<feColorMatrix type="matrix" values="0 0 0 0 0.889423 0 0 0 0 0.643743 0 0 0 0 0.551613 0 0 0 1 0"/>
<feBlend mode="normal" in2="BackgroundImageFix" result="effect1_dropShadow_2022_3089"/>
<feBlend mode="normal" in="SourceGraphic" in2="effect1_dropShadow_2022_3089" result="shape"/>
</filter>
</defs>
</svg>
