<svg width="62" height="61" viewBox="0 0 62 61" fill="none" xmlns="http://www.w3.org/2000/svg">
<g filter="url(#filter0_d_2022_3081)">
<path d="M30.6668 28.2022C23.7233 28.2022 17.8329 26.1605 14.8999 23.1088V23.7236C14.9667 27.9487 22.0393 31.3964 30.6668 31.3964C39.1858 31.3964 46.4054 27.8611 46.4329 23.6763V23.1084C43.5003 26.1602 37.6099 28.2022 30.6668 28.2022Z" fill="#FFF3E5"/>
<path d="M30.6668 33.2088C23.7397 33.2088 17.8379 31.1601 14.8999 28.1045V28.9211C14.9667 33.1459 22.0393 36.5937 30.6668 36.5937C39.1858 36.5937 46.4054 33.0584 46.4329 28.8739V28.1083C43.4984 31.1639 37.6034 33.2088 30.6668 33.2088Z" fill="#FFF3E5"/>
<path d="M30.6668 38.4063C23.7397 38.4063 17.8379 36.3576 14.8999 33.302V34.1485C14.9667 38.3739 22.0393 41.8217 30.6668 41.8217C39.1858 41.8217 46.4054 38.2864 46.4329 34.1016V33.3058C43.4984 36.3614 37.6034 38.4063 30.6668 38.4063Z" fill="#FFF3E5"/>
<path d="M33.9817 20.6468C33.9817 20.3774 33.8175 20.1739 33.4898 20.0357C33.1617 19.8975 32.659 19.7937 31.9814 19.7231V21.5319C33.3148 21.4292 33.9817 21.134 33.9817 20.6468Z" fill="#FFF3E5"/>
<path d="M27.8518 17.268C28.1955 17.4093 28.7173 17.5184 29.4163 17.5951V15.7478C28.6314 15.7992 28.0886 15.9034 27.7869 16.0603C27.4859 16.2176 27.3354 16.4149 27.3354 16.652C27.3354 16.9218 27.5073 17.127 27.8518 17.268Z" fill="#FFF3E5"/>
<path d="M30.6668 26.3906C39.2133 26.3906 46.4329 22.8439 46.4329 18.6451C46.4329 14.4466 39.2133 10.8999 30.6668 10.8999C22.1203 10.8999 14.8999 14.4466 14.8999 18.6451C14.8999 22.8439 22.1203 26.3906 30.6668 26.3906ZM24.1893 15.618C24.4478 15.2877 24.8183 15.0021 25.3027 14.7614C25.7866 14.521 26.3755 14.3268 27.0692 14.1788C27.7628 14.0316 28.5455 13.9287 29.4159 13.8707V12.8796H31.9811V13.8426C32.766 13.868 33.5646 13.9211 34.3767 14.001C35.1883 14.0819 35.9335 14.1924 36.6107 14.3331V16.2388C34.9546 15.9178 33.4115 15.7386 31.9811 15.6997V17.8364C32.6587 17.9007 33.3282 17.9858 33.9897 18.0914C34.6513 18.1973 35.2426 18.3509 35.7643 18.5534C36.2857 18.7556 36.7104 19.0203 37.0388 19.3475C37.3665 19.6744 37.5308 20.0947 37.5308 20.6082C37.5308 21.4297 37.0491 22.0748 36.0874 22.5428C35.1245 23.0114 33.756 23.3032 31.9814 23.4185V24.4099H29.4162V23.4668C28.3624 23.4473 27.3705 23.3914 26.4401 23.2983C25.5101 23.2052 24.7385 23.0753 24.1251 22.9086V21.0227C24.5449 21.1126 24.9532 21.1911 25.3512 21.2589C25.7492 21.3259 26.1574 21.3836 26.5772 21.4319C26.9966 21.4802 27.4378 21.5184 27.9003 21.5475C28.3621 21.5764 28.8678 21.5941 29.4163 21.6003V19.4924C28.7395 19.4347 28.0673 19.3559 27.4004 19.2565C26.7331 19.1572 26.1338 19.0081 25.6014 18.8091C25.069 18.6104 24.6362 18.3468 24.3031 18.0199C23.9693 17.693 23.8031 17.2692 23.8031 16.7495C23.8028 16.3253 23.9315 15.9487 24.1893 15.618Z" fill="#FFF3E5"/>
</g>
<defs>
<filter id="filter0_d_2022_3081" x="-9.72748e-05" y="-9.72748e-05" width="61.3332" height="60.7219" filterUnits="userSpaceOnUse" color-interpolation-filters="sRGB">
<feFlood flood-opacity="0" result="BackgroundImageFix"/>
<feColorMatrix in="SourceAlpha" type="matrix" values="0 0 0 0 0 0 0 0 0 0 0 0 0 0 0 0 0 0 127 0" result="hardAlpha"/>
<feOffset dy="4"/>
<feGaussianBlur stdDeviation="7.45"/>
<feComposite in2="hardAlpha" operator="out"/>
<feColorMatrix type="matrix" values="0 0 0 0 0.807692 0 0 0 0 0.481509 0 0 0 0 0.481509 0 0 0 0.71 0"/>
<feBlend mode="normal" in2="BackgroundImageFix" result="effect1_dropShadow_2022_3081"/>
<feBlend mode="normal" in="SourceGraphic" in2="effect1_dropShadow_2022_3081" result="shape"/>
</filter>
</defs>
</svg>
