<svg preserveAspectRatio="none" width="100%" height="100%" overflow="visible" style="display: block;" viewBox="0 0 42.1462 24.4787" fill="none" xmlns="http://www.w3.org/2000/svg">
<g id="&#38;lt;Repetici&#195;&#131;&#194;&#179;n de cuadr&#195;&#131;&#194;&#173;cula&#38;gt;">
<path id="Vector" d="M0.228272 0.204731L10.9034 0.249238L12.777 2.13929C15.5369 4.92542 20.6714 10.1119 20.7989 10.2395L20.9412 10.3849L21.0864 10.2425C22.6428 8.69366 25.8296 5.53664 28.388 3.00272C29.4849 1.91676 30.4691 0.940576 31.1717 0.24627H41.9387L41.912 6.51579H29.1914L28.7052 6.51282L29.0461 6.85701L38.0374 15.9394L33.5551 20.3871L24.5341 11.3463L24.1873 10.9991V24.274H17.8878V11.5154V11.0288L17.5439 11.373L8.52589 20.3722L4.08211 15.886L13.1149 6.86294L13.4618 6.51579H0.198625L0.225304 0.204731M0.0266794 0.00296662L0 6.72052H12.9786L3.80345 15.886L8.53181 20.66L17.6921 11.5184V24.4787H24.3978V11.4887L33.561 20.6719L38.3309 15.9394L29.1973 6.71459H42.1195L42.1462 0.0474738H31.0946C28.7793 2.33809 23.1853 7.8688 20.9471 10.1001C20.7722 9.92204 11.4874 0.548917 10.9923 0.0474738L0.0296467 0L0.0266794 0.00296662Z" fill="var(--fill-0, #32DD80)"/>
</g>
</svg>
