<svg preserveAspectRatio="none" width="100%" height="100%" overflow="visible" style="display: block;" viewBox="0 0 32.375 38.125" fill="none" xmlns="http://www.w3.org/2000/svg">
<g id="Vector" filter="url(#filter0_d_0_43)">
<path d="M27.5533 0.824875C27.0225 0.293 26.3166 0 25.5656 0H24.3191V1.25C24.3191 2.6285 23.1988 3.75 21.8218 3.75H10.5843C9.20731 3.75 8.08706 2.6285 8.08706 1.25V0H6.83638C5.289 0 4.02875 1.26025 4.027 2.80937L4 27.3094C3.99913 28.0612 4.291 28.7682 4.82169 29.3001C5.3525 29.8321 6.05838 30.125 6.80938 30.125H25.5386C27.0859 30.125 28.3463 28.8647 28.3479 27.3156L28.375 2.81563C28.3759 2.06381 28.084 1.35681 27.5533 0.824875ZM16.5059 9.375H23.1592C23.6764 9.375 24.0956 9.79475 24.0956 10.3125C24.0956 10.8303 23.6764 11.25 23.1592 11.25H16.5059C15.9887 11.25 15.5694 10.8303 15.5694 10.3125C15.5694 9.79475 15.9887 9.375 16.5059 9.375ZM16.5059 15.625H23.1592C23.6764 15.625 24.0956 16.0447 24.0956 16.5625C24.0956 17.0803 23.6764 17.5 23.1592 17.5H16.5059C15.9887 17.5 15.5694 17.0803 15.5694 16.5625C15.5694 16.0447 15.9887 15.625 16.5059 15.625ZM16.5059 21.875H23.1859C23.7031 21.875 24.1224 22.2947 24.1224 22.8125C24.1224 23.3303 23.7031 23.75 23.1859 23.75H16.5059C15.9887 23.75 15.5694 23.3303 15.5694 22.8125C15.5694 22.2947 15.9887 21.875 16.5059 21.875ZM8.52694 9.412C8.89269 9.04587 9.48556 9.04587 9.85131 9.412L10.3605 9.92181L12.5201 7.75981C12.8859 7.39375 13.4788 7.39362 13.8444 7.75981C14.2101 8.12587 14.2101 8.7195 13.8444 9.08562L11.0226 11.9105C10.847 12.0863 10.6088 12.1851 10.3604 12.1851C10.1121 12.1851 9.87388 12.0864 9.69825 11.9105L8.52688 10.7378C8.16119 10.3717 8.16119 9.77806 8.52694 9.412ZM8.52694 16.1393C8.89269 15.7732 9.48556 15.7732 9.85131 16.1393L10.3605 16.6491L12.5201 14.4871C12.8858 14.121 13.4788 14.121 13.8444 14.4871C14.2101 14.8531 14.2101 15.4468 13.8444 15.8129L11.0226 18.6378C10.8471 18.8136 10.6088 18.9124 10.3604 18.9124C10.1121 18.9124 9.87388 18.8137 9.69825 18.6378L8.52688 17.4651C8.16119 17.099 8.16119 16.5054 8.52694 16.1393ZM8.52694 22.3893C8.89269 22.0232 9.48556 22.0232 9.85131 22.3893L10.3605 22.8991L12.5201 20.7371C12.8858 20.371 13.4788 20.371 13.8444 20.7371C14.2101 21.1031 14.2101 21.6968 13.8444 22.0629L11.0226 24.8878C10.8471 25.0636 10.6088 25.1624 10.3604 25.1624C10.1121 25.1624 9.87388 25.0637 9.69825 24.8878L8.52688 23.7151C8.16119 23.349 8.16119 22.7554 8.52694 22.3893Z" fill="var(--fill-0, white)"/>
</g>
<defs>
<filter id="filter0_d_0_43" x="0" y="0" width="32.375" height="38.125" filterUnits="userSpaceOnUse" color-interpolation-filters="sRGB">
<feFlood flood-opacity="0" result="BackgroundImageFix"/>
<feColorMatrix in="SourceAlpha" type="matrix" values="0 0 0 0 0 0 0 0 0 0 0 0 0 0 0 0 0 0 127 0" result="hardAlpha"/>
<feOffset dy="4"/>
<feGaussianBlur stdDeviation="2"/>
<feComposite in2="hardAlpha" operator="out"/>
<feColorMatrix type="matrix" values="0 0 0 0 0.165033 0 0 0 0 0.403846 0 0 0 0 0.273965 0 0 0 1 0"/>
<feBlend mode="normal" in2="BackgroundImageFix" result="effect1_dropShadow_0_43"/>
<feBlend mode="normal" in="SourceGraphic" in2="effect1_dropShadow_0_43" result="shape"/>
</filter>
</defs>
</svg>
