<svg preserveAspectRatio="none" width="100%" height="100%" overflow="visible" style="display: block;" viewBox="0 0 29.8571 22.1429" fill="none" xmlns="http://www.w3.org/2000/svg">
<g id="Vector" filter="url(#filter0_d_0_9)">
<path d="M4 14.1429H25.8571V0H4V14.1429ZM22 3.21429C22 2.85927 22.2878 2.57143 22.6429 2.57143C22.9979 2.57143 23.2857 2.85927 23.2857 3.21429V10.9286C23.2857 11.2836 22.9979 11.5714 22.6429 11.5714C22.2878 11.5714 22 11.2836 22 10.9286V3.21429ZM18.1429 3.21429C18.1429 2.85927 18.4307 2.57143 18.7857 2.57143C19.1407 2.57143 19.4286 2.85927 19.4286 3.21429V10.9286C19.4286 11.2836 19.1407 11.5714 18.7857 11.5714C18.4307 11.5714 18.1429 11.2836 18.1429 10.9286V3.21429ZM14.2857 3.21429C14.2857 2.85927 14.5736 2.57143 14.9286 2.57143C15.2836 2.57143 15.5714 2.85927 15.5714 3.21429V10.9286C15.5714 11.2836 15.2836 11.5714 14.9286 11.5714C14.5736 11.5714 14.2857 11.2836 14.2857 10.9286V3.21429ZM10.4286 3.21429C10.4286 2.85927 10.7164 2.57143 11.0714 2.57143C11.4264 2.57143 11.7143 2.85927 11.7143 3.21429V10.9286C11.7143 11.2836 11.4264 11.5714 11.0714 11.5714C10.7164 11.5714 10.4286 11.2836 10.4286 10.9286V3.21429ZM6.57143 3.21429C6.57143 2.85927 6.85927 2.57143 7.21429 2.57143C7.5693 2.57143 7.85714 2.85927 7.85714 3.21429V10.9286C7.85714 11.2836 7.5693 11.5714 7.21429 11.5714C6.85927 11.5714 6.57143 11.2836 6.57143 10.9286V3.21429Z" fill="var(--fill-0, white)"/>
</g>
<defs>
<filter id="filter0_d_0_9" x="0" y="0" width="29.8571" height="22.1429" filterUnits="userSpaceOnUse" color-interpolation-filters="sRGB">
<feFlood flood-opacity="0" result="BackgroundImageFix"/>
<feColorMatrix in="SourceAlpha" type="matrix" values="0 0 0 0 0 0 0 0 0 0 0 0 0 0 0 0 0 0 127 0" result="hardAlpha"/>
<feOffset dy="4"/>
<feGaussianBlur stdDeviation="2"/>
<feComposite in2="hardAlpha" operator="out"/>
<feColorMatrix type="matrix" values="0 0 0 0 0.0999445 0 0 0 0 0.451923 0 0 0 0 0.260496 0 0 0 1 0"/>
<feBlend mode="normal" in2="BackgroundImageFix" result="effect1_dropShadow_0_9"/>
<feBlend mode="normal" in="SourceGraphic" in2="effect1_dropShadow_0_9" result="shape"/>
</filter>
</defs>
</svg>
