<svg preserveAspectRatio="none" width="100%" height="100%" overflow="visible" style="display: block;" viewBox="0 0 32.4375 32.4375" fill="none" xmlns="http://www.w3.org/2000/svg">
<g id="Vector" filter="url(#filter0_d_0_15)">
<path d="M28.4375 12.2188C28.4375 5.4812 22.9563 0 16.2188 0C9.4812 0 4 5.4812 4 12.2188C4 14.4146 4.58447 16.5525 5.69434 18.4294L4.04492 24.3923L10.0081 22.7432C11.885 23.853 14.0229 24.4375 16.2188 24.4375C22.9563 24.4375 28.4375 18.9563 28.4375 12.2188ZM14.3438 9.375H12.4688C12.4688 7.30713 14.1509 5.625 16.2188 5.625C18.2866 5.625 19.9688 7.30713 19.9688 9.375C19.9688 10.4246 19.5244 11.4333 18.7493 12.1423L17.1562 13.6003V15.0625H15.2812V12.7747L17.4834 10.759C17.877 10.3989 18.0938 9.90747 18.0938 9.375C18.0938 8.34106 17.2527 7.5 16.2188 7.5C15.1848 7.5 14.3438 8.34106 14.3438 9.375ZM15.2812 16.9375H17.1562V18.8125H15.2812V16.9375Z" fill="var(--fill-0, white)"/>
</g>
<defs>
<filter id="filter0_d_0_15" x="0" y="0" width="32.4375" height="32.4375" filterUnits="userSpaceOnUse" color-interpolation-filters="sRGB">
<feFlood flood-opacity="0" result="BackgroundImageFix"/>
<feColorMatrix in="SourceAlpha" type="matrix" values="0 0 0 0 0 0 0 0 0 0 0 0 0 0 0 0 0 0 127 0" result="hardAlpha"/>
<feOffset dy="4"/>
<feGaussianBlur stdDeviation="2"/>
<feComposite in2="hardAlpha" operator="out"/>
<feColorMatrix type="matrix" values="0 0 0 0 0.10748 0 0 0 0 0.360577 0 0 0 0 0.222928 0 0 0 1 0"/>
<feBlend mode="normal" in2="BackgroundImageFix" result="effect1_dropShadow_0_15"/>
<feBlend mode="normal" in="SourceGraphic" in2="effect1_dropShadow_0_15" result="shape"/>
</filter>
</defs>
</svg>
