<svg preserveAspectRatio="none" width="100%" height="100%" overflow="visible" style="display: block;" viewBox="0 0 23.5808 21.075" fill="none" xmlns="http://www.w3.org/2000/svg">
<g id="Vector" filter="url(#filter0_d_0_7)">
<path d="M5.83974 13.075L11.6562 7.67505C11.7877 7.69639 11.9202 7.70926 12.053 7.71429C12.1676 7.70895 12.2818 7.69734 12.3951 7.67944L17.7743 13.0571L19.5808 13.0455L13.7533 7.21739C14.6928 6.63323 15.2651 5.60617 15.2673 4.5C15.2673 4.14498 14.9794 3.85714 14.6244 3.85714C14.2694 3.85714 13.9816 4.14498 13.9816 4.5C13.9812 5.27312 13.5192 5.97154 12.8076 6.27414L12.5075 5.97405C12.263 5.72953 11.8684 5.72231 11.6151 5.95804L11.2836 6.26597C10.449 5.89966 9.98472 4.99909 10.1706 4.10669C10.3564 3.2146 11.1414 2.57425 12.053 2.57143H12.6958V0H11.4101V1.35006C10.1335 1.60903 9.14003 2.61349 8.89551 3.89261C8.65067 5.17205 9.20344 6.4722 10.2942 7.1838L4 13.0288L5.83974 13.075Z" fill="var(--fill-0, white)"/>
</g>
<defs>
<filter id="filter0_d_0_7" x="0" y="0" width="23.5808" height="21.075" filterUnits="userSpaceOnUse" color-interpolation-filters="sRGB">
<feFlood flood-opacity="0" result="BackgroundImageFix"/>
<feColorMatrix in="SourceAlpha" type="matrix" values="0 0 0 0 0 0 0 0 0 0 0 0 0 0 0 0 0 0 127 0" result="hardAlpha"/>
<feOffset dy="4"/>
<feGaussianBlur stdDeviation="2"/>
<feComposite in2="hardAlpha" operator="out"/>
<feColorMatrix type="matrix" values="0 0 0 0 0.0999445 0 0 0 0 0.451923 0 0 0 0 0.260496 0 0 0 1 0"/>
<feBlend mode="normal" in2="BackgroundImageFix" result="effect1_dropShadow_0_7"/>
<feBlend mode="normal" in="SourceGraphic" in2="effect1_dropShadow_0_7" result="shape"/>
</filter>
</defs>
</svg>
