<svg preserveAspectRatio="none" width="100%" height="100%" overflow="visible" style="display: block;" viewBox="0 0 26.9758 14.0625" fill="none" xmlns="http://www.w3.org/2000/svg">
<path id="Vector" d="M17.0034 0H9.97215C8.5183 0 7.33543 1.18286 7.33543 2.63672V3.51563H0L3.3149 13.4617C3.43506 13.8213 3.7706 14.0625 4.14917 14.0625H9.09325V13.1836C9.09325 12.6979 9.48647 12.3047 9.97215 12.3047H17.0034C17.4891 12.3047 17.8823 12.6979 17.8823 13.1836V14.0625H22.8264C23.205 14.0625 23.5405 13.8213 23.6607 13.4617L26.9758 3.51563H19.6401V2.63672C19.6401 1.18286 18.4573 0 17.0034 0ZM9.09325 3.51563V2.63672C9.09325 2.15172 9.48715 1.75781 9.97215 1.75781H17.0034C17.4884 1.75781 17.8823 2.15172 17.8823 2.63672V3.51563H9.09325Z" fill="var(--fill-0, white)"/>
</svg>
