<svg preserveAspectRatio="none" width="100%" height="100%" overflow="visible" style="display: block;" viewBox="0 0 8.85714 25.4643" fill="none" xmlns="http://www.w3.org/2000/svg">
<path id="Vector" d="M5.53571 0H0V5.53571H3.32143C3.61506 5.53571 3.89667 5.65236 4.1043 5.85999C4.31193 6.06762 4.42857 6.34922 4.42857 6.64286C4.42857 6.93649 4.31193 7.2181 4.1043 7.42572C3.89667 7.63335 3.61506 7.75 3.32143 7.75H0V11.0714H3.32143C3.61506 11.0714 3.89667 11.1881 4.1043 11.3957C4.31193 11.6033 4.42857 11.8849 4.42857 12.1786C4.42857 12.4722 4.31193 12.7538 4.1043 12.9614C3.89667 13.1691 3.61506 13.2857 3.32143 13.2857H0V16.6071H3.32143C3.61506 16.6071 3.89667 16.7238 4.1043 16.9314C4.31193 17.139 4.42857 17.4207 4.42857 17.7143C4.42857 18.0079 4.31193 18.2895 4.1043 18.4972C3.89667 18.7048 3.61506 18.8214 3.32143 18.8214H0V25.4643H7.75C8.04363 25.4643 8.32524 25.3476 8.53287 25.14C8.7405 24.9324 8.85714 24.6508 8.85714 24.3571V3.32143C8.85714 2.44053 8.50721 1.59571 7.88432 0.972824C7.26143 0.349935 6.41661 0 5.53571 0Z" fill="var(--fill-0, white)"/>
</svg>
