<svg preserveAspectRatio="none" width="100%" height="100%" overflow="visible" style="display: block;" viewBox="0 0 20.8571 22.1429" fill="none" xmlns="http://www.w3.org/2000/svg">
<g id="Vector" filter="url(#filter0_d_0_8)">
<path d="M4 0V14.1429H16.8571V0H4ZM7.85714 10.9286C7.85714 11.2836 7.5693 11.5714 7.21429 11.5714C6.85927 11.5714 6.57143 11.2836 6.57143 10.9286V3.21429C6.57143 2.85927 6.85927 2.57143 7.21429 2.57143C7.5693 2.57143 7.85714 2.85927 7.85714 3.21429V10.9286ZM11.0714 10.9286C11.0714 11.2836 10.7836 11.5714 10.4286 11.5714C10.0736 11.5714 9.78571 11.2836 9.78571 10.9286V3.21429C9.78571 2.85927 10.0736 2.57143 10.4286 2.57143C10.7836 2.57143 11.0714 2.85927 11.0714 3.21429V10.9286ZM14.2857 10.9286C14.2857 11.2836 13.9979 11.5714 13.6429 11.5714C13.2878 11.5714 13 11.2836 13 10.9286V3.21429C13 2.85927 13.2878 2.57143 13.6429 2.57143C13.9979 2.57143 14.2857 2.85927 14.2857 3.21429V10.9286Z" fill="var(--fill-0, white)"/>
</g>
<defs>
<filter id="filter0_d_0_8" x="0" y="0" width="20.8571" height="22.1429" filterUnits="userSpaceOnUse" color-interpolation-filters="sRGB">
<feFlood flood-opacity="0" result="BackgroundImageFix"/>
<feColorMatrix in="SourceAlpha" type="matrix" values="0 0 0 0 0 0 0 0 0 0 0 0 0 0 0 0 0 0 127 0" result="hardAlpha"/>
<feOffset dy="4"/>
<feGaussianBlur stdDeviation="2"/>
<feComposite in2="hardAlpha" operator="out"/>
<feColorMatrix type="matrix" values="0 0 0 0 0.0999445 0 0 0 0 0.451923 0 0 0 0 0.260496 0 0 0 1 0"/>
<feBlend mode="normal" in2="BackgroundImageFix" result="effect1_dropShadow_0_8"/>
<feBlend mode="normal" in="SourceGraphic" in2="effect1_dropShadow_0_8" result="shape"/>
</filter>
</defs>
</svg>
