<svg preserveAspectRatio="none" width="100%" height="100%" overflow="visible" style="display: block;" viewBox="0 0 19.9286 31" fill="none" xmlns="http://www.w3.org/2000/svg">
<path id="Vector" d="M16.6071 0H3.32143C2.44053 0 1.59571 0.349935 0.972824 0.972824C0.349935 1.59571 0 2.44053 0 3.32143V29.8929C0 30.1865 0.116645 30.4681 0.324275 30.6757C0.531904 30.8834 0.81351 31 1.10714 31H6.64286V23.25C6.64286 22.9564 6.7595 22.6748 6.96713 22.4671C7.17476 22.2595 7.45637 22.1429 7.75 22.1429H12.1786C12.4722 22.1429 12.7538 22.2595 12.9614 22.4671C13.1691 22.6748 13.2857 22.9564 13.2857 23.25V31H19.9286V3.32143C19.9286 2.44053 19.5786 1.59571 18.9557 0.972824C18.3329 0.349935 17.488 0 16.6071 0ZM7.75 18.8214H5.53571C5.24208 18.8214 4.96048 18.7048 4.75285 18.4972C4.54522 18.2895 4.42857 18.0079 4.42857 17.7143C4.42857 17.4207 4.54522 17.139 4.75285 16.9314C4.96048 16.7238 5.24208 16.6071 5.53571 16.6071H7.75C8.04363 16.6071 8.32524 16.7238 8.53287 16.9314C8.7405 17.139 8.85714 17.4207 8.85714 17.7143C8.85714 18.0079 8.7405 18.2895 8.53287 18.4972C8.32524 18.7048 8.04363 18.8214 7.75 18.8214ZM7.75 13.2857H5.53571C5.24208 13.2857 4.96048 13.1691 4.75285 12.9614C4.54522 12.7538 4.42857 12.4722 4.42857 12.1786C4.42857 11.8849 4.54522 11.6033 4.75285 11.3957C4.96048 11.1881 5.24208 11.0714 5.53571 11.0714H7.75C8.04363 11.0714 8.32524 11.1881 8.53287 11.3957C8.7405 11.6033 8.85714 11.8849 8.85714 12.1786C8.85714 12.4722 8.7405 12.7538 8.53287 12.9614C8.32524 13.1691 8.04363 13.2857 7.75 13.2857ZM7.75 7.75H5.53571C5.24208 7.75 4.96048 7.63335 4.75285 7.42572C4.54522 7.2181 4.42857 6.93649 4.42857 6.64286C4.42857 6.34922 4.54522 6.06762 4.75285 5.85999C4.96048 5.65236 5.24208 5.53571 5.53571 5.53571H7.75C8.04363 5.53571 8.32524 5.65236 8.53287 5.85999C8.7405 6.06762 8.85714 6.34922 8.85714 6.64286C8.85714 6.93649 8.7405 7.2181 8.53287 7.42572C8.32524 7.63335 8.04363 7.75 7.75 7.75ZM14.3929 18.8214H12.1786C11.8849 18.8214 11.6033 18.7048 11.3957 18.4972C11.1881 18.2895 11.0714 18.0079 11.0714 17.7143C11.0714 17.4207 11.1881 17.139 11.3957 16.9314C11.6033 16.7238 11.8849 16.6071 12.1786 16.6071H14.3929C14.6865 16.6071 14.9681 16.7238 15.1757 16.9314C15.3834 17.139 15.5 17.4207 15.5 17.7143C15.5 18.0079 15.3834 18.2895 15.1757 18.4972C14.9681 18.7048 14.6865 18.8214 14.3929 18.8214ZM14.3929 13.2857H12.1786C11.8849 13.2857 11.6033 13.1691 11.3957 12.9614C11.1881 12.7538 11.0714 12.4722 11.0714 12.1786C11.0714 11.8849 11.1881 11.6033 11.3957 11.3957C11.6033 11.1881 11.8849 11.0714 12.1786 11.0714H14.3929C14.6865 11.0714 14.9681 11.1881 15.1757 11.3957C15.3834 11.6033 15.5 11.8849 15.5 12.1786C15.5 12.4722 15.3834 12.7538 15.1757 12.9614C14.9681 13.1691 14.6865 13.2857 14.3929 13.2857ZM14.3929 7.75H12.1786C11.8849 7.75 11.6033 7.63335 11.3957 7.42572C11.1881 7.2181 11.0714 6.93649 11.0714 6.64286C11.0714 6.34922 11.1881 6.06762 11.3957 5.85999C11.6033 5.65236 11.8849 5.53571 12.1786 5.53571H14.3929C14.6865 5.53571 14.9681 5.65236 15.1757 5.85999C15.3834 6.06762 15.5 6.34922 15.5 6.64286C15.5 6.93649 15.3834 7.2181 15.1757 7.42572C14.9681 7.63335 14.6865 7.75 14.3929 7.75Z" fill="var(--fill-0, white)"/>
</svg>
