<svg preserveAspectRatio="none" width="100%" height="100%" overflow="visible" style="display: block;" viewBox="0 0 36.092 26.4601" fill="none" xmlns="http://www.w3.org/2000/svg">
<g id="_11.number_10">
<path id="Vector" d="M11.74 0.508866V25.9513H5.92458V6.6514L1.41763 7.88718L0.000119668 2.90773L6.6515 0.508866H11.74Z" fill="var(--fill-0, white)"/>
<path id="Vector_2" d="M15.3746 13.2301C15.3746 5.37926 19.1546 0 25.7333 0C32.312 0 36.092 5.37926 36.092 13.2301C36.092 21.0809 32.312 26.4601 25.7333 26.4601C19.1546 26.4601 15.3746 21.0809 15.3746 13.2301ZM30.2766 13.2301C30.2766 8.32331 28.7864 5.67003 25.7333 5.67003C22.6802 5.67003 21.19 8.32331 21.19 13.2301C21.19 18.1368 22.6802 20.7901 25.7333 20.7901C28.7864 20.7901 30.2766 18.1368 30.2766 13.2301Z" fill="var(--fill-0, white)"/>
</g>
</svg>
