<svg preserveAspectRatio="none" width="100%" height="100%" overflow="visible" style="display: block;" viewBox="0 0 36 24.6639" fill="none" xmlns="http://www.w3.org/2000/svg">
<path id="Vector" d="M32.6655 18.6655V17.3328V9.33277V1.33277C32.6655 0.600591 32.0662 0 31.3328 0H4.66723C3.93378 0 3.33277 0.597638 3.33277 1.33277V9.33277V17.3328V18.6655L0 22.6655C0 23.7676 0.894981 24.6639 2 24.6639H34C35.1033 24.6639 36 23.7672 36 22.6655L32.6655 18.6655ZM20.6685 23.9996H15.3345C15.1501 23.9996 15.0008 23.8515 15.0008 23.666C15.0008 23.4804 15.1501 23.3324 15.3345 23.3324H20.6689C20.8515 23.3324 21.0025 23.4804 21.0025 23.666C20.9975 23.852 20.8511 23.9996 20.6685 23.9996ZM12.504 22.6668L13.5213 21.4458H22.4766L23.4956 22.6668H12.504ZM30.7891 16.3075C30.7891 16.9507 30.2653 17.4711 29.6267 17.4711H6.37284C5.73429 17.4711 5.21046 16.946 5.21046 16.3075V2.36061C5.21046 1.71742 5.73429 1.19696 6.37284 1.19696H29.6272C30.2657 1.19696 30.7895 1.72079 30.7895 2.36061L30.7891 16.3075Z" fill="var(--fill-0, white)"/>
</svg>
